<?xml version="1.0" encoding="utf-8"?>
<!-- Generator: Adobe Illustrator 28.0.0, SVG Export Plug-In . SVG Version: 6.00 Build 0)  -->
<svg version="1.1" xmlns="http://www.w3.org/2000/svg" xmlns:xlink="http://www.w3.org/1999/xlink" x="0px" y="0px"
	 viewBox="0 0 6820.82 2799.75" style="enable-background:new 0 0 6820.82 2799.75;" xml:space="preserve">
<style type="text/css">
	.st0{fill:#B7091E;}
	.st1{fill:#B7091E;stroke:#B7091E;stroke-width:3;stroke-miterlimit:10;}
	.st2{opacity:0.7;fill:#FF8603;}
	.st3{fill:#FF8603;}
	.st4{opacity:0.7;fill:#038CD8;}
	.st5{fill:#038CD8;}
	.st6{opacity:0.7;fill:#FFD400;}
	.st7{fill:#FFD400;}
	.st8{opacity:0.7;fill:#2E753B;}
	.st9{fill:#2E753B;}
	.st10{opacity:0.7;fill:#034EA1;}
	.st11{fill:#034EA1;}
	.st12{fill:#552984;}
	.st13{fill:#3F3F3F;}
	.st14{fill:#AC1F24;}
	.st15{opacity:0.7;fill:#00A1F2;}
	.st16{fill:#00A1F2;}
	.st17{opacity:0.7;fill:#028C25;}
	.st18{fill:#028C25;}
	.st19{fill:#5E2193;}
	.st20{fill:#E00011;}
	.st21{fill:#43226D;}
</style>
<g id="Layer_2">
</g>
<g id="Layer_4">
</g>
<g id="Layer_3">
</g>
<g id="Layer_1">
	<g>
		<path class="st0" d="M1542.77,410.39c-11.17-14.16-28.65-22.8-49.1-24.18c-26.66-1.81-54.77,8.2-73.78,26.17
			c-32.16,30.49-42.79,75.39-51.35,111.49l-12.61,53.54c-14.32,3.45-28.83,6.31-43.42,8.55l-5.49,18.22
			c14.95-2.07,29.82-4.75,44.5-8.03l-270.16,1141.52c-31.17,131.61-69.91,295.44-178.82,406.15
			c-136.57,138.87-383.49,167.2-550.33,63.13c-166.93-104.06-239.99-331.88-162.96-507.89c1.89-4.32-0.27-9.41-4.86-11.23
			c-4.59-1.9-9.82,0.17-11.8,4.58c-80.17,183.34-4.05,420.58,169.81,529.05c70.72,44.04,155.13,65.29,240.07,65.29
			c123.87,0,248.72-45.25,333.13-131.01c112.34-114.17,151.7-280.59,183.32-414.27l272.15-1150.15c35.85-9.5,70.72-22.8,103.6-40.16
			c33.6-17.62,71.17-52.16,79.46-89.38C1558.35,442.95,1554.39,425.16,1542.77,410.39z M1536.55,458.15
			c-7.12,31.69-41.53,62.61-70.54,77.9c-28.83,15.2-59.19,27.2-90.36,36.1l10.45-44.39c8.02-33.94,18.02-76.17,46.49-103.11
			c13.96-13.3,35.04-21.42,54.86-21.42c1.62,0,3.24,0.09,4.86,0.17c10.81,0.78,25.86,4.4,36.03,17.45
			C1536.91,431.63,1539.62,444.16,1536.55,458.15z"/>
		<path class="st0" d="M582.47,2302.89c-91.5,0-177.46-23.42-248.6-67.73c-180.32-112.5-259.3-358.87-176.06-549.2
			c5.68-12.63,20.03-18.28,32.75-13.02c6.05,2.39,11.11,7.36,13.67,13.56c2.51,6.1,2.44,13.04-0.19,19.05
			c-73.94,168.96-3.64,387.75,156.72,487.72c160.81,100.31,398.7,73.06,530.29-60.75c105.67-107.41,143.86-268.67,174.55-398.24
			l264.45-1117.38c-6.91,1.22-13.85,2.31-20.8,3.27l-24.93,3.45l15.7-52.05l10.05-1.55c10.89-1.68,21.78-3.71,32.47-6.07
			l10.31-43.78c9.07-38.24,20.32-85.73,55.95-119.5c22.17-20.95,55.06-32.66,85.98-30.55c25.05,1.69,46.6,12.45,60.67,30.28
			l0.01,0.01c14.55,18.49,19.67,41.54,14.41,64.9c-10.07,45.24-53.54,82.22-87.7,100.13c-30.37,16.03-63.16,29.1-97.59,38.89
			l-269.94,1140.85c-32.08,135.66-72.01,304.48-187.52,421.87C842.14,2253.38,716.52,2302.89,582.47,2302.89z M1487.46,419.35
			c-15.74,0-32.91,6.66-43.73,16.97c-25.03,23.69-34.39,63.31-41.91,95.14l-3.93,16.69c21.04-7.39,41.34-16.22,60.61-26.38
			c26.61-14.03,56.55-41.58,62.31-67.12c2.03-9.3,0.41-16.86-5.09-23.79c-5.3-6.79-13.53-10.59-24.55-11.38
			C1490.05,419.43,1488.76,419.35,1487.46,419.35z"/>
	</g>
	<g>
		<path class="st0" d="M1303.05,556.13l-4.59,15.29l-2.07,6.82l-3.42,11.4l-5.32,17.79l-5.4,17.88l-7.39,24.61L971,1661.55
			l-21.53,71.77l-65.4,217.54l49.64-221.34l16.31-72.97l230.62-1029.25l0.36-1.64l3.78-17.1c10.27,0.86,20.45,1.38,30.72,1.64
			c-1.08,6.04-1.89,11.83-2.43,17.19c-0.27,2.59-0.45,5.09-0.63,7.51c-0.27,5.61-0.18,10.62,0.18,14.94
			c0.18,1.73,0.45,3.37,0.72,4.84c0.27,1.47,0.63,2.85,0.99,4.15c1.35,4.32,3.42,7,6.13,7.69c0.45,0.09,0.81,0.17,1.26,0.17
			c6.13,0,13.87-9.41,21.35-24.35c2.25-4.49,4.41-9.59,6.49-15.03c2.16-5.44,4.14-11.31,6.04-17.53c0.99-3.28,1.98-6.65,2.88-10.1
			c0.63-2.42,1.26-4.84,1.8-7.25c1.44-6.05,2.61-12,3.51-17.62c0.27-1.47,0.45-2.85,0.63-4.23c0.45-3.28,0.81-6.39,0.99-9.41
			c0.27-2.24,0.36-4.4,0.54-6.48v-2.07c0.09-2.07,0.09-4.06,0.09-5.96c0-0.6,0-1.21-0.09-1.81c-0.45-12.09-3.15-20.04-8.11-21.24
			c-0.45-0.09-0.81-0.17-1.26-0.17c-7.84,0-18.56,15.55-27.57,38.6c-1.71,4.32-3.33,8.98-4.96,13.82
			c-10.54-0.09-21.08-0.52-31.62-1.3l4.5-20.21l5.05-22.54c0.27-1.21,0.63-2.42,0.9-3.54c9.82-36.79,40.09-61.66,68.01-55.01
			c0,0,0.09,0,0.18,0c0.09,0,0.09,0,0.18,0.09C1299.99,480.31,1314.49,518.05,1303.05,556.13z"/>
		<path class="st0" d="M885.72,1951.36l-3.34-0.88l65.94-294.31L1179.3,625.28l4.11-18.57l1.51,0.13
			c9.85,0.83,19.87,1.36,30.62,1.63l2.01,0.05l-0.35,1.98c-1.05,5.9-1.87,11.63-2.41,17.05c-0.26,2.52-0.44,4.95-0.61,7.3
			c-0.26,5.42-0.2,10.37,0.16,14.84c0.18,1.64,0.44,3.24,0.7,4.67c0.26,1.41,0.61,2.75,0.96,3.99c0.8,2.56,2.32,5.82,4.89,6.48
			c0.34,0.07,0.56,0.12,0.83,0.12c5.07,0,12.47-8.75,19.8-23.4c2.08-4.16,4.24-9.16,6.41-14.87c2-5.04,3.96-10.73,6-17.42
			c0.98-3.26,1.97-6.6,2.87-10.04c0.63-2.43,1.25-4.81,1.78-7.19c1.39-5.84,2.57-11.73,3.5-17.52c0.27-1.47,0.45-2.83,0.62-4.18
			c0.52-3.79,0.82-6.65,0.98-9.29c0.18-1.52,0.28-2.9,0.37-4.25l0.17-2.27l-0.01-1.92c0.09-2.12,0.09-4.08,0.09-5.96
			c0-0.52,0.01-1.04-0.07-1.56c-0.44-11.55-2.98-18.88-6.81-19.82c-0.36-0.07-0.58-0.12-0.85-0.12c-5.63,0-15.83,11.6-25.96,37.5
			c-1.83,4.62-3.52,9.54-4.93,13.74l-0.4,1.19l-1.25-0.01c-10.52-0.09-21.2-0.52-31.73-1.3l-2-0.15l9.99-44.7
			c0.16-0.73,0.36-1.45,0.54-2.17l0.36-1.41c10.1-37.85,41.52-63.09,70.09-56.29h0.7l0.19,0.22c11.46,2.95,20.99,10.59,27.6,22.13
			c9.76,17.05,11.6,40.5,4.92,62.74L885.72,1951.36z M1186.14,610.4l-3.82,17.27L951.7,1656.92l-55.36,247.11l73-242.98
			l311.24-1036.24l20.81-69.17c6.41-21.35,4.69-43.79-4.61-60.03c-6.23-10.87-15.2-18-25.94-20.62l-0.37-0.09
			c-26.74-6.35-56.31,17.77-65.92,53.78l-0.37,1.45c-0.18,0.66-0.36,1.35-0.51,2.03l-9.12,40.79c9.39,0.65,18.88,1.03,28.26,1.14
			c1.34-3.97,2.9-8.46,4.59-12.71c10.29-26.34,22.01-41.23,30.6-39.52c5.91,1.43,9.17,9.34,9.67,22.91c0.09,0.5,0.09,1.19,0.09,1.88
			c0,1.92,0,3.94-0.09,6.03l0,2l-0.17,2.37c-0.1,1.4-0.2,2.84-0.38,4.32c-0.16,2.63-0.46,5.57-0.99,9.44
			c-0.18,1.4-0.37,2.81-0.64,4.31c-0.93,5.84-2.12,11.81-3.53,17.71c-0.54,2.4-1.17,4.82-1.8,7.24c-0.92,3.52-1.92,6.91-2.91,10.21
			c-2.07,6.79-4.06,12.57-6.08,17.67c-2.21,5.79-4.41,10.9-6.55,15.16c-5.78,11.54-14.44,25.31-22.9,25.31
			c-0.51,0-0.94-0.07-1.42-0.17c-3.57-0.9-6.04-3.87-7.61-8.9c-0.39-1.39-0.76-2.82-1.04-4.35c-0.28-1.51-0.56-3.2-0.74-4.97
			c-0.38-4.66-0.45-9.76-0.18-15.21c0.19-2.6,0.37-5.06,0.64-7.61c0.49-4.89,1.2-10.04,2.1-15.33
			C1203.92,611.59,1194.95,611.11,1186.14,610.4z"/>
	</g>
	<g>
		<path class="st1" d="M1260.26,591.4c-0.54,2.42-1.17,4.84-1.8,7.25c-0.9,3.45-1.89,6.82-2.88,10.1
			c-6.31,0.35-12.61,0.52-18.92,0.52c-0.99,0.09-1.89,0.09-2.88,0.09c-6.03,0-12.16-0.09-18.29-0.17
			c-10.27-0.26-20.45-0.78-30.72-1.64c-5.95-0.43-11.98-1.04-18.02-1.64c-140.8-15.37-276.2-81.52-362.86-189.74
			c-2.97-3.8-2.25-9.15,1.71-12.09c3.87-2.94,9.55-2.16,12.61,1.55c84.05,104.93,215.66,169.01,352.32,183.43
			c6.04,0.69,12.07,1.21,18.02,1.64c10.18,0.78,20.45,1.21,30.63,1.47c6.13,0.09,12.34,0.09,18.56,0c1.26,0,2.52,0,3.87-0.09
			C1247.83,592.01,1254.05,591.75,1260.26,591.4z"/>
		<path class="st1" d="M1233.78,623.19c-6.1,0-12.29-0.09-18.48-0.17c-11.21-0.28-21.52-0.84-31.68-1.69
			c-5.84-0.42-11.93-1.03-18.02-1.64c-150.85-16.47-286.5-87.48-372.5-194.87c-3.85-4.91-5.47-10.85-4.66-16.83
			c0.81-6.02,3.99-11.35,8.93-15.02c9.55-7.25,23.75-5.55,31.51,3.86c79.16,98.82,204.17,163.82,343.1,178.48
			c5.33,0.61,10.87,1.11,17.57,1.6c8.93,0.68,18.72,1.15,29.98,1.44c5.84,0.08,11.93,0.08,18.01,0c1.17,0,2.15,0.01,3.19-0.06
			l0.68-0.02c5.39-0.08,11.3-0.3,18.08-0.67l18.25-1.01l-3.99,17.84c-0.57,2.56-1.24,5.12-1.9,7.68c-0.96,3.68-2,7.21-3.04,10.66
			l-2.8,9.28l-9.68,0.53c-6.37,0.35-12.81,0.53-19.15,0.54C1236.04,623.18,1234.95,623.19,1233.78,623.19z"/>
	</g>
	<g>
		<path class="st2" d="M1970.17,1642.12c-180.6,0-321.4-49.04-418.42-145.77c-96.93-96.54-146.03-236.88-146.03-417
			c0-180.2,49.28-319.91,146.47-415.27c97.26-95.47,238.48-143.9,419.61-143.9s321.78,48.8,418.05,145.04
			c96.12,96.08,144.83,235.9,144.83,415.58c0,179.14-49.14,318.97-146.05,415.55C2291.62,1593.08,2150.81,1642.12,1970.17,1642.12z
			 M1971.8,532.68c-177.22,0-315.08,47.08-409.72,139.92c-94.76,92.98-142.8,229.82-142.8,406.74
			c0,176.87,47.92,314.35,142.43,408.54c94.38,94.05,231.81,141.75,408.45,141.75c176.69,0,314.13-47.7,408.5-141.75
			c94.5-94.19,142.43-231.19,142.43-407.08c0-176.44-47.54-313.43-141.24-407.12C2286.28,580.12,2148.99,532.68,1971.8,532.68z
			 M1970.17,1450.45c-100.6,0-177.39-31.6-228.16-93.9c-50.36-61.77-75.89-154.56-75.89-275.74c0-121.2,25.82-214.12,76.68-276.15
			c51.36-62.57,128.37-94.28,229-94.28c200.71,0,302.45,124.64,302.45,370.42C2274.25,1326.07,2171.96,1450.45,1970.17,1450.45z
			 M1971.8,722.87c-96.12,0-169.53,30.07-218.15,89.32c-49.1,59.8-73.96,150.18-73.96,268.62c0,118.42,24.6,208.69,73.19,268.23
			c48.07,58.98,121.18,88.92,217.29,88.92c195.49,0,290.51-116.85,290.51-357.16C2260.68,839.96,2166.19,722.87,1971.8,722.87z"/>
		<path class="st3" d="M2154.57,1396.63c-2.15,0-4.22-1.08-5.47-3.01c-1.87-2.94-1.12-6.81,1.73-8.83l252.6-178.13l-174.56,100.78
			c-2.96,1.67-6.74,0.84-8.68-2.02c-1.89-2.84-1.25-6.7,1.47-8.78l222.1-170.45l-188.19,108.59c-2.97,1.71-6.74,0.86-8.65-1.98
			c-1.91-2.83-1.3-6.67,1.4-8.78l199-155.86l-180.84,104.36c-2.97,1.71-6.76,0.84-8.68-2.01c-1.91-2.85-1.27-6.69,1.47-8.78
			l176.73-135.39l-165.95,95.8c-2.99,1.7-6.81,0.82-8.7-2.05c-1.91-2.85-1.23-6.71,1.52-8.78l159.87-119.95l-151.33,87.38
			c-2.97,1.7-6.74,0.87-8.68-2c-1.87-2.84-1.27-6.65,1.41-8.76l162.41-127.06l-157.38,90.86c-3.01,1.68-6.79,0.82-8.7-2.05
			c-1.91-2.88-1.23-6.74,1.54-8.81l140.85-105.46L2265.6,994.7c-2.99,1.68-6.76,0.83-8.67-2.04c-1.91-2.85-1.27-6.69,1.45-8.78
			l139.66-106.95l-138.57,80c-2.94,1.67-6.65,0.85-8.59-1.9c-1.93-2.76-1.45-6.55,1.14-8.73l150.05-126.57l-155.24,89.65
			c-2.94,1.66-6.65,0.85-8.59-1.88c-1.95-2.76-1.45-6.54,1.1-8.72l140.23-119.51l-149.99,86.61c-2.92,1.67-6.65,0.86-8.56-1.87
			c-1.96-2.74-1.51-6.51,1.05-8.71l131.96-113.64l-147,84.87c-2.94,1.69-6.67,0.88-8.61-1.9c-1.95-2.78-1.41-6.56,1.18-8.73
			l122.78-102.86l-141.29,81.59c-2.9,1.68-6.61,0.88-8.56-1.85c-1.95-2.7-1.52-6.46,0.99-8.68l121.11-106.96l-151.39,87.41
			c-2.96,1.67-6.67,0.87-8.59-1.88c-1.93-2.74-1.49-6.52,1.1-8.7l117.09-100.19l-153.79,88.8c-2.97,1.68-6.72,0.85-8.63-1.96
			c-1.93-2.82-1.36-6.64,1.3-8.77l113.95-91.21l-153.74,88.77c-2.86,1.63-6.52,0.9-8.48-1.77c-1.98-2.66-1.63-6.37,0.79-8.63
			l126.91-118.49l-210.83,121.72c-2.99,1.71-6.74,0.84-8.65-2c-1.93-2.85-1.3-6.67,1.4-8.79l136.98-106.45l-238.59,137.74
			c-3.12,1.76-7.11,0.74-8.9-2.38c-1.8-3.12-0.74-7.11,2.39-8.9l320.7-185.16c2.97-1.69,6.72-0.83,8.67,2.02
			c1.93,2.83,1.3,6.67-1.41,8.77l-136.94,106.46l178.05-102.82c2.9-1.65,6.52-0.9,8.52,1.76c1.95,2.66,1.62,6.37-0.83,8.64
			l-126.9,118.48l178.73-103.19c2.94-1.71,6.7-0.86,8.63,1.96c1.93,2.82,1.36,6.63-1.32,8.77l-113.95,91.21l140.56-81.14
			c2.9-1.68,6.61-0.89,8.57,1.88c1.93,2.75,1.47,6.52-1.08,8.71l-117.11,100.16l146.52-84.59c2.94-1.67,6.61-0.89,8.56,1.84
			c1.95,2.71,1.52,6.47-0.97,8.68l-121.11,106.96l149.83-86.53c2.98-1.68,6.68-0.85,8.61,1.91c1.93,2.77,1.41,6.56-1.18,8.74
			l-122.78,102.85l142.24-82.12c2.9-1.69,6.61-0.88,8.56,1.87c1.95,2.74,1.51,6.51-1.07,8.71l-131.94,113.64l151.7-87.6
			c2.92-1.69,6.63-0.87,8.59,1.89c1.91,2.75,1.45,6.54-1.1,8.71l-140.24,119.51l157.04-90.67c2.92-1.68,6.65-0.87,8.58,1.9
			c1.96,2.75,1.47,6.54-1.12,8.72l-150.05,126.58l161.67-93.35c2.97-1.73,6.74-0.84,8.68,2.04c1.89,2.85,1.25,6.69-1.45,8.79
			l-139.66,106.94l145.24-83.85c2.97-1.73,6.79-0.83,8.68,2.06c1.89,2.88,1.23,6.74-1.52,8.8l-140.87,105.48l143.02-82.59
			c2.96-1.71,6.74-0.84,8.67,1.99c1.91,2.84,1.3,6.67-1.4,8.78l-162.42,127.07l164.94-95.23c2.97-1.73,6.8-0.84,8.7,2.06
			c1.91,2.88,1.23,6.74-1.52,8.8l-159.85,119.92l158.59-91.58c2.99-1.71,6.76-0.83,8.68,2.02c1.91,2.86,1.27,6.7-1.45,8.79
			l-176.78,135.43l174.23-100.58c2.97-1.7,6.74-0.83,8.65,2.01c1.91,2.83,1.3,6.66-1.38,8.77l-199,155.87l194.23-112.1
			c2.96-1.72,6.76-0.83,8.68,2.02c1.91,2.85,1.27,6.7-1.45,8.78l-222.08,170.41l213.03-122.96c3.03-1.72,6.87-0.8,8.76,2.13
			c1.87,2.93,1.1,6.82-1.74,8.83l-252.6,178.09l242-139.7c3.09-1.78,7.12-0.74,8.9,2.37c1.78,3.12,0.72,7.11-2.39,8.9
			l-366.44,211.56C2156.81,1396.34,2155.71,1396.63,2154.57,1396.63z"/>
		<path class="st3" d="M1976.72,1641.11c-2.17,0-4.26-1.1-5.49-3.05c-1.87-2.96-1.08-6.85,1.8-8.83l394.13-272.08l-483.07,278.89
			c-3.07,1.78-7,0.81-8.81-2.26c-1.85-3.01-0.96-6.92,2.04-8.85l410.01-264.31l-461.74,266.59c-3.01,1.73-6.89,0.83-8.74-2.13
			c-1.87-2.9-1.14-6.79,1.71-8.81l175.46-125.15l-216.5,125c-2.94,1.65-6.63,0.88-8.58-1.87c-1.96-2.74-1.49-6.5,1.05-8.7
			l139.67-120.47l-192.96,111.38c-2.94,1.65-6.57,0.9-8.54-1.8c-1.95-2.7-1.54-6.43,0.92-8.67l126.45-113.97l-172.96,99.85
			c-2.96,1.67-6.7,0.84-8.63-1.96c-1.93-2.79-1.38-6.61,1.29-8.74l115.27-93.26l-142.87,82.5c-2.9,1.67-6.55,0.9-8.54-1.84
			c-1.96-2.7-1.54-6.45,0.94-8.69l120.63-107.52l-152.53,88.06c-2.9,1.63-6.54,0.9-8.5-1.78c-1.96-2.68-1.6-6.41,0.83-8.65
			l124.93-114.89l-155.25,89.62c-2.92,1.67-6.65,0.88-8.61-1.89c-1.91-2.79-1.41-6.57,1.18-8.74l123.96-103.34l-143.29,82.74
			c-2.96,1.71-6.7,0.84-8.61-1.91c-1.93-2.79-1.43-6.58,1.19-8.74l130.29-107.97l-145.99,84.28c-2.96,1.65-6.68,0.86-8.63-1.96
			c-1.91-2.79-1.36-6.61,1.29-8.74l133.82-108.28l-147.04,84.89c-2.96,1.67-6.7,0.86-8.63-1.95c-1.93-2.79-1.4-6.61,1.27-8.74
			l143.51-116.43l-152.86,88.25c-2.97,1.69-6.72,0.84-8.63-1.96c-1.93-2.79-1.36-6.61,1.29-8.74l151.92-122.38l-159.56,92.12
			c-2.99,1.69-6.79,0.83-8.68-2.06c-1.91-2.88-1.23-6.74,1.52-8.8l142.3-106.68l-144.6,83.45c-3.01,1.69-6.79,0.83-8.7-2.06
			c-1.89-2.88-1.21-6.74,1.54-8.81l148.34-110.65l-149.17,86.07c-3.01,1.69-6.81,0.85-8.7-2.06c-1.89-2.88-1.23-6.72,1.54-8.8
			l159.01-119.1l-157.76,91.05c-3.01,1.68-6.79,0.82-8.7-2.05c-1.89-2.87-1.23-6.73,1.52-8.8l168.8-126.61l-166.24,95.93
			c-2.99,1.72-6.81,0.85-8.68-2.02c-1.91-2.86-1.27-6.71,1.49-8.79l185.93-141.08l-180.93,104.44c-3.01,1.72-6.81,0.83-8.7-2.06
			c-1.89-2.88-1.21-6.74,1.56-8.79l196.43-145.72l-189.2,109.24c-3.03,1.73-6.87,0.82-8.74-2.12c-1.89-2.93-1.14-6.81,1.69-8.82
			l209.39-149.29l-200.27,115.64c-3.05,1.78-7,0.77-8.83-2.28c-1.84-3.03-0.9-6.97,2.08-8.87l461.88-292.3l-450.29,259.98
			c-3.07,1.75-6.94,0.8-8.8-2.22c-1.85-2.99-0.99-6.91,1.95-8.86l473.72-312.71l-456.78,263.72c-3.05,1.72-6.89,0.8-8.78-2.18
			c-1.85-2.97-1.03-6.88,1.86-8.85l411.48-280.54l-384.3,221.88c-3.03,1.74-6.87,0.83-8.72-2.12c-1.89-2.91-1.16-6.79,1.69-8.81
			l316.9-226.48L1494.5,761.48c-2.9,1.68-6.59,0.87-8.56-1.86c-1.96-2.73-1.52-6.49,0.99-8.7l150.55-131.65l-33.07,19.1
			c-3.14,1.76-7.12,0.74-8.89-2.38c-1.8-3.12-0.75-7.11,2.37-8.9l90.76-52.41c2.92-1.64,6.61-0.87,8.56,1.84
			c1.95,2.73,1.52,6.49-0.99,8.7l-150.56,131.66l329.22-190.08c3.01-1.72,6.85-0.81,8.72,2.12c1.87,2.91,1.16,6.79-1.69,8.82
			l-316.92,226.48l418.71-241.74c3.01-1.74,6.89-0.79,8.76,2.18c1.86,2.97,1.07,6.87-1.85,8.85l-411.46,280.53l494.47-285.49
			c3.07-1.73,6.94-0.79,8.78,2.22c1.86,3,0.99,6.93-1.95,8.87l-473.7,312.7l539.38-311.43c3.07-1.75,7.01-0.76,8.83,2.28
			c1.84,3.03,0.9,6.97-2.07,8.87l-461.83,292.29l40.45-23.36c3.01-1.74,6.85-0.82,8.7,2.12c1.89,2.92,1.18,6.8-1.67,8.81
			l-209.43,149.3l169.77-98c3.01-1.71,6.81-0.81,8.68,2.07c1.91,2.89,1.23,6.76-1.54,8.81l-196.45,145.72l172.38-99.51
			c2.97-1.74,6.76-0.85,8.67,2.03c1.91,2.87,1.27,6.72-1.49,8.8l-185.93,141.12l170.28-98.32c2.97-1.74,6.77-0.84,8.7,2.05
			c1.89,2.87,1.23,6.73-1.52,8.8l-168.76,126.62l158.29-91.39c2.97-1.71,6.79-0.83,8.7,2.06c1.91,2.88,1.23,6.74-1.54,8.8
			l-159.01,119.14l150.66-86.95c2.97-1.7,6.79-0.84,8.7,2.05c1.89,2.88,1.23,6.75-1.56,8.81l-148.32,110.66l142.87-82.44
			c2.97-1.74,6.77-0.83,8.68,2.05c1.91,2.88,1.23,6.75-1.52,8.8l-142.28,106.62l138.37-79.85c2.94-1.72,6.68-0.86,8.63,1.96
			c1.91,2.81,1.34,6.6-1.3,8.75l-151.92,122.37l151.24-87.33c2.96-1.7,6.7-0.86,8.63,1.96c1.93,2.79,1.4,6.58-1.27,8.73
			l-143.51,116.45l147.63-85.23c2.96-1.71,6.68-0.86,8.65,1.95c1.89,2.81,1.34,6.61-1.28,8.74l-133.82,108.28l140.94-81.36
			c2.94-1.69,6.67-0.86,8.59,1.91c1.93,2.79,1.43,6.57-1.17,8.74l-130.29,107.96l142.19-82.09c2.96-1.67,6.65-0.88,8.59,1.89
			c1.93,2.79,1.41,6.57-1.16,8.74l-123.97,103.34l140.59-81.18c2.88-1.65,6.54-0.9,8.5,1.78c1.98,2.68,1.62,6.41-0.83,8.65
			l-124.91,114.89l156.44-90.32c2.92-1.63,6.59-0.88,8.54,1.84c1.96,2.7,1.56,6.44-0.94,8.68l-120.62,107.52l159.84-92.28
			c2.94-1.74,6.68-0.88,8.63,1.93c1.93,2.81,1.36,6.63-1.29,8.76L1728,1519.05l154.53-89.22c2.9-1.63,6.54-0.9,8.54,1.8
			c1.95,2.72,1.54,6.45-0.92,8.68l-126.45,113.99l199.2-115c2.9-1.69,6.59-0.9,8.56,1.87c1.95,2.74,1.49,6.5-1.07,8.69
			l-139.64,120.49L2105,1412.02c3.01-1.73,6.87-0.83,8.74,2.11c1.86,2.9,1.14,6.79-1.69,8.81l-175.52,125.19l574.64-331.76
			c3.07-1.74,6.98-0.8,8.8,2.24c1.85,3.02,0.96,6.95-2.02,8.86l-410.05,264.31l392.62-226.65c3.01-1.76,6.87-0.83,8.76,2.13
			c1.87,2.97,1.07,6.87-1.82,8.87l-394.13,272.08l362.43-209.25c3.03-1.76,6.89-0.83,8.76,2.15c1.87,2.94,1.1,6.85-1.78,8.83
			l-281.09,195.14l238.99-138c2.92-1.65,6.61-0.88,8.57,1.87c1.95,2.77,1.49,6.52-1.06,8.72l-144.91,124.47l31.97-18.45
			c3.1-1.8,7.11-0.77,8.91,2.37c1.8,3.1,0.73,7.11-2.39,8.89l-92.41,53.36c-2.94,1.67-6.63,0.88-8.58-1.85
			c-1.95-2.75-1.49-6.52,1.08-8.72l144.89-124.45l-314,181.28c-3.07,1.73-6.89,0.79-8.76-2.15c-1.86-2.96-1.08-6.85,1.78-8.85
			l281.13-195.14l-366.88,211.82C1978.96,1640.82,1977.82,1641.11,1976.72,1641.11z"/>
	</g>
	<g>
		<path class="st4" d="M5478.36,1558.14H5245.4c-3.52,0-6.37-2.63-6.37-5.89v-431.79h-423.73v431.79c0,3.26-2.86,5.89-6.38,5.89
			H4575.2c-3.53,0-6.39-2.63-6.39-5.89V538.21c0-3.25,2.86-5.88,6.39-5.88h233.71c3.51,0,6.38,2.64,6.38,5.88v391.55h423.73V538.21
			c0-3.25,2.85-5.88,6.37-5.88h232.96c3.52,0,6.37,2.64,6.37,5.88v1014.04C5484.73,1555.51,5481.88,1558.14,5478.36,1558.14z
			 M5251.79,1546.38h220.18V544.09h-220.18v391.55c0,3.26-2.85,5.89-6.39,5.89h-436.48c-3.55,0-6.4-2.63-6.4-5.89V544.09h-220.92
			v1002.29h220.92v-431.79c0-3.25,2.85-5.87,6.4-5.87h436.48c3.54,0,6.39,2.62,6.39,5.87V1546.38z"/>
		<path class="st5" d="M5245.87,932.82c-1.96,0-3.87-0.93-5.06-2.65c-1.81-2.65-1.29-6.23,1.21-8.24l170.63-137.56l-163.78,94.57
			c-2.79,1.61-6.36,0.79-8.15-1.9c-1.8-2.69-1.21-6.3,1.34-8.27l159.02-122.45l-152.26,87.92c-2.79,1.58-6.33,0.79-8.13-1.85
			c-1.79-2.64-1.27-6.24,1.23-8.24l169.65-136.13l-162.82,94.02c-2.81,1.58-6.39,0.77-8.17-1.94c-1.8-2.71-1.14-6.35,1.45-8.28
			l148.15-110.4l-141.47,81.69c-2.78,1.58-6.32,0.79-8.14-1.86c-1.81-2.66-1.25-6.27,1.25-8.26l166.46-131.73l-159.63,92.19
			c-2.77,1.57-6.24,0.81-8.08-1.78c-1.82-2.58-1.38-6.13,1.01-8.19l124.67-106.7l-117.65,67.93c-2.56,1.45-5.84,0.9-7.75-1.36
			c-1.91-2.26-1.93-5.58-0.03-7.87l61.83-74.59l-54.12,31.27c-2.02,1.15-4.53,1.08-6.46-0.22c-1.94-1.29-2.97-3.56-2.68-5.87
			l4.79-37.85c-1.66-0.35-3.16-1.37-4.08-2.94c-1.69-2.94-0.68-6.68,2.24-8.38l6.15-3.55c2-1.16,4.52-1.11,6.45,0.21
			c1.95,1.29,2.99,3.57,2.69,5.87l-4.54,35.92l73.01-42.15c2.56-1.49,5.82-0.91,7.76,1.35c1.9,2.27,1.92,5.58,0.04,7.88
			l-61.84,74.58l145.45-83.99c2.75-1.59,6.24-0.83,8.09,1.77c1.81,2.58,1.38,6.13-1.02,8.2l-124.66,106.69l174.89-100.98
			c2.78-1.6,6.3-0.81,8.14,1.86c1.81,2.66,1.26,6.26-1.26,8.26l-166.46,131.73l159.62-92.17c2.8-1.61,6.39-0.78,8.19,1.94
			c1.8,2.71,1.14,6.34-1.45,8.28l-148.19,110.41l141.46-81.69c2.77-1.59,6.32-0.81,8.12,1.85c1.81,2.64,1.3,6.24-1.21,8.24
			L5312.1,783.54l162.78-93.98c2.78-1.6,6.34-0.8,8.15,1.9c1.81,2.69,1.21,6.3-1.35,8.26l-159,122.44l152.21-87.89
			c2.76-1.6,6.3-0.8,8.12,1.84c1.82,2.65,1.28,6.23-1.21,8.24l-170.64,137.56l163.77-94.55c2.94-1.68,6.67-0.7,8.36,2.25
			c1.69,2.94,0.71,6.68-2.23,8.38l-232.13,134.02C5247.96,932.56,5246.92,932.82,5245.87,932.82z"/>
		<path class="st5" d="M5285.98,1558.3c-1.94,0-3.83-0.93-5.02-2.62c-1.8-2.6-1.33-6.16,1.1-8.2l138.46-116.06l-171.62,99.09
			c-2.79,1.6-6.34,0.79-8.14-1.88c-1.81-2.66-1.26-6.26,1.27-8.26l165.48-130.35l-158.66,91.62c-2.81,1.59-6.37,0.79-8.19-1.93
			c-1.77-2.7-1.16-6.34,1.44-8.28l151.88-114.27L5248.81,1441c-2.79,1.6-6.35,0.8-8.15-1.89c-1.8-2.69-1.21-6.29,1.35-8.27
			l160.45-124.03l-153.7,88.73c-2.79,1.59-6.33,0.79-8.14-1.89c-1.8-2.66-1.23-6.28,1.32-8.25l162.65-126.71l-155.87,90
			c-2.79,1.59-6.34,0.79-8.12-1.87c-1.83-2.64-1.29-6.23,1.22-8.23l169.25-135.38l-162.4,93.78c-2.81,1.59-6.35,0.79-8.16-1.89
			c-1.79-2.67-1.22-6.27,1.3-8.26l163.19-127.36l-156.4,90.32c-2.79,1.6-6.33,0.78-8.14-1.88c-1.8-2.66-1.24-6.26,1.27-8.25
			l165.32-130.03l-158.51,91.51c-2.81,1.6-6.41,0.77-8.19-1.94c-1.77-2.7-1.14-6.33,1.45-8.27l150.51-112.75l-143.82,83.03
			c-2.79,1.61-6.33,0.8-8.14-1.87c-1.79-2.66-1.24-6.27,1.29-8.26l165.75-130.56l-171.28,98.89c-2.79,1.61-6.34,0.78-8.15-1.89
			c-1.81-2.68-1.22-6.29,1.32-8.26l174.61-135.76l-252.84,145.99c-2.82,1.6-6.39,0.79-8.18-1.94c-1.8-2.71-1.15-6.34,1.44-8.28
			l247-184.57l-337.53,194.89c-2.86,1.65-6.52,0.74-8.26-2.05c-1.75-2.79-0.99-6.46,1.74-8.32l292.19-199.25l-363.23,209.71
			c-2.77,1.6-6.3,0.79-8.12-1.85c-1.8-2.63-1.29-6.21,1.2-8.22l160.19-129.56l-242.01,139.73c-2.82,1.61-6.42,0.76-8.18-1.94
			c-1.79-2.71-1.15-6.34,1.46-8.28l155.84-116.12l-218.98,126.44c-2.95,1.67-6.69,0.69-8.39-2.25c-1.68-2.94-0.68-6.68,2.25-8.38
			l309.73-178.83c2.82-1.62,6.39-0.75,8.18,1.95c1.79,2.71,1.15,6.34-1.46,8.28l-155.84,116.13l218.97-126.43
			c2.77-1.62,6.28-0.8,8.13,1.84c1.79,2.63,1.27,6.22-1.21,8.23l-160.19,129.56l437.14-252.38c2.83-1.64,6.48-0.76,8.24,2.05
			c1.74,2.79,1,6.46-1.73,8.33l-292.17,199.24l285.65-164.94c2.82-1.62,6.41-0.79,8.19,1.93c1.78,2.71,1.16,6.35-1.45,8.28
			l-246.98,184.57l240.28-138.75c2.8-1.61,6.34-0.78,8.15,1.89c1.8,2.67,1.21,6.28-1.33,8.27l-174.63,135.77l167.84-96.91
			c2.8-1.61,6.36-0.78,8.14,1.88c1.8,2.66,1.24,6.27-1.28,8.26l-165.75,130.57l158.91-91.74c2.81-1.62,6.37-0.79,8.17,1.93
			c1.8,2.71,1.16,6.34-1.45,8.28l-150.46,112.71l143.76-83c2.82-1.59,6.34-0.8,8.12,1.87c1.81,2.67,1.26,6.26-1.26,8.25
			l-165.31,130.05l158.45-91.51c2.82-1.59,6.34-0.79,8.16,1.88c1.8,2.67,1.23,6.27-1.3,8.26l-163.21,127.37l156.39-90.31
			c2.78-1.6,6.3-0.8,8.12,1.87c1.83,2.64,1.29,6.23-1.23,8.23l-169.26,135.38l162.4-93.77c2.78-1.62,6.34-0.79,8.15,1.88
			c1.8,2.67,1.23,6.28-1.31,8.26l-162.68,126.72l155.86-89.98c2.8-1.61,6.36-0.8,8.15,1.9c1.81,2.68,1.23,6.29-1.33,8.26
			l-160.47,124.03l153.68-88.72c2.8-1.62,6.36-0.79,8.19,1.92c1.78,2.7,1.16,6.33-1.44,8.28l-151.88,114.25l145.13-83.78
			c2.78-1.6,6.32-0.79,8.14,1.87c1.81,2.66,1.25,6.26-1.28,8.25l-165.5,130.36l158.67-91.61c2.77-1.56,6.27-0.81,8.09,1.8
			c1.83,2.61,1.33,6.16-1.09,8.21l-138.46,116.06l131.5-75.92c2.61-1.49,5.94-0.87,7.84,1.47c1.88,2.36,1.78,5.74-0.24,7.98
			l-74.47,81.67l66.87-38.62c2.31-1.31,5.17-1,7.15,0.74c1.97,1.77,2.59,4.6,1.55,7.01l-17.93,41.14l9.24-5.34
			c2.9-1.69,6.69-0.71,8.38,2.24c1.69,2.94,0.67,6.68-2.25,8.38l-25.34,14.64c-2.3,1.3-5.17,1.03-7.15-0.74
			c-1.99-1.76-2.61-4.6-1.54-7.01l17.91-41.14l-84.94,49.06c-2.61,1.52-5.94,0.9-7.84-1.47c-1.92-2.36-1.8-5.74,0.24-7.98
			l74.44-81.68l-158.12,91.31C5288.09,1558.04,5287.04,1558.3,5285.98,1558.3z"/>
		<path class="st5" d="M4601.29,1558.33c-1.95,0-3.85-0.93-5.04-2.62c-1.82-2.61-1.34-6.18,1.11-8.22l152.14-126.49l-170.77,98.6
			c-2.76,1.61-6.28,0.8-8.1-1.82c-1.81-2.63-1.31-6.21,1.15-8.22l174.97-143.41l-168.01,97.01c-2.79,1.6-6.3,0.79-8.12-1.84
			c-1.81-2.64-1.29-6.24,1.2-8.24l171.87-138.81l-164.95,95.25c-2.78,1.62-6.36,0.79-8.15-1.9c-1.8-2.68-1.22-6.29,1.33-8.27
			l160.94-124.42l-154.13,88.99c-2.78,1.61-6.32,0.79-8.13-1.87c-1.8-2.64-1.26-6.24,1.24-8.23l169.3-135.26l-162.42,93.78
			c-2.83,1.62-6.43,0.76-8.2-1.95c-1.78-2.73-1.11-6.36,1.5-8.3l143.09-105.1l-136.4,78.74c-2.88,1.65-6.54,0.73-8.28-2.07
			c-1.74-2.82-0.94-6.5,1.82-8.34l340.41-225.94l-333.96,192.82c-2.85,1.66-6.52,0.73-8.27-2.06c-1.75-2.81-0.96-6.5,1.79-8.34
			l282.99-189.97l-276.51,159.65c-2.83,1.64-6.44,0.76-8.22-1.99c-1.77-2.74-1.08-6.39,1.57-8.29l248.1-178.17l-241.45,139.41
			c-2.83,1.61-6.4,0.77-8.17-1.92c-1.79-2.7-1.17-6.33,1.42-8.28l186.93-141.08l-180.19,104.02c-2.84,1.62-6.41,0.76-8.19-1.95
			c-1.78-2.72-1.12-6.36,1.49-8.28l144.89-106.8l-138.19,79.79c-2.77,1.61-6.34,0.79-8.14-1.88c-1.8-2.67-1.23-6.28,1.3-8.26
			l164.43-128.62l-157.58,90.99c-2.79,1.61-6.32,0.78-8.12-1.86c-1.81-2.64-1.28-6.23,1.22-8.23l170.87-137.28l-163.97,94.67
			c-2.83,1.62-6.42,0.77-8.19-1.96c-1.78-2.71-1.13-6.35,1.49-8.28l144.61-106.55l-137.92,79.63c-2.8,1.62-6.37,0.78-8.15-1.9
			c-1.8-2.7-1.2-6.31,1.35-8.28l158.79-121.82l-151.99,87.76c-2.77,1.59-6.3,0.79-8.11-1.82c-1.81-2.63-1.3-6.22,1.17-8.23
			l174.29-142.4l-167.35,96.62c-2.77,1.62-6.35,0.79-8.14-1.89c-1.8-2.68-1.21-6.29,1.32-8.27l161.08-124.6l-154.25,89.06
			c-2.83,1.62-6.42,0.76-8.19-1.94c-1.78-2.71-1.13-6.34,1.47-8.28l147.4-109.44l-140.68,81.23c-2.83,1.61-6.39,0.76-8.17-1.93
			c-1.79-2.69-1.17-6.32,1.41-8.27l154.15-116.64l-147.4,85.1c-2.79,1.62-6.33,0.79-8.14-1.87c-1.8-2.65-1.24-6.25,1.28-8.25
			l124.64-98.5l-117.78,68.01c-2.62,1.5-5.98,0.89-7.88-1.52c-1.88-2.39-1.73-5.81,0.36-8.02l75.3-79.27l-67.78,39.12
			c-2.02,1.15-4.48,1.09-6.4-0.16c-1.93-1.24-2.99-3.47-2.76-5.76l5.1-49.87c-1.75-0.29-3.36-1.34-4.33-3
			c-1.68-2.93-0.68-6.68,2.25-8.37l6.15-3.54c1.98-1.17,4.46-1.09,6.39,0.16c1.94,1.25,3,3.48,2.76,5.77l-4.92,48.16l94.04-54.3
			c2.64-1.51,5.99-0.9,7.89,1.52c1.87,2.38,1.72,5.81-0.37,8.02l-75.29,79.27l154.13-88.99c2.8-1.59,6.34-0.79,8.14,1.87
			c1.8,2.65,1.25,6.25-1.27,8.25l-124.66,98.51l159.8-92.27c2.81-1.62,6.37-0.76,8.18,1.92c1.78,2.7,1.17,6.33-1.42,8.28
			l-154.14,116.62l147.43-85.11c2.81-1.64,6.4-0.77,8.19,1.94c1.78,2.71,1.13,6.35-1.47,8.28L4664.78,710.7l140.71-81.24
			c2.8-1.61,6.36-0.79,8.14,1.89c1.8,2.68,1.21,6.29-1.33,8.26l-161.09,124.61l154.33-89.1c2.78-1.6,6.3-0.79,8.1,1.82
			c1.82,2.63,1.31,6.21-1.17,8.23l-174.27,142.39l167.4-96.65c2.81-1.61,6.38-0.78,8.15,1.9c1.8,2.7,1.2,6.31-1.36,8.28
			l-158.8,121.83l152.06-87.8c2.81-1.63,6.4-0.78,8.2,1.96c1.78,2.72,1.12,6.36-1.49,8.28l-144.6,106.54l137.93-79.65
			c2.77-1.59,6.32-0.78,8.13,1.86c1.81,2.64,1.28,6.23-1.22,8.23l-170.87,137.28l164.03-94.7c2.82-1.6,6.36-0.78,8.14,1.88
			c1.81,2.67,1.24,6.28-1.29,8.26l-164.44,128.63l157.65-91.02c2.81-1.63,6.41-0.79,8.19,1.96c1.79,2.71,1.12,6.35-1.49,8.28
			l-144.92,106.81l171.4-98.95c2.81-1.63,6.38-0.77,8.17,1.93c1.79,2.7,1.17,6.33-1.42,8.28l-186.93,141.08L4921,930.68
			c2.84-1.62,6.45-0.75,8.22,1.99c1.77,2.75,1.08,6.4-1.57,8.3l-248.09,178.15l326.53-188.53c2.84-1.65,6.5-0.73,8.27,2.06
			c1.74,2.81,0.96,6.49-1.79,8.33l-282.98,189.97l347.15-200.44c2.88-1.64,6.54-0.73,8.28,2.08c1.74,2.82,0.94,6.5-1.81,8.34
			l-340.47,225.96l62.66-36.17c2.81-1.64,6.42-0.75,8.2,1.95c1.78,2.74,1.11,6.37-1.5,8.3L4669,1246.06l136.43-78.77
			c2.78-1.61,6.33-0.8,8.14,1.86c1.8,2.64,1.26,6.24-1.24,8.24l-169.31,135.25l162.48-93.81c2.8-1.6,6.36-0.77,8.14,1.9
			c1.8,2.68,1.21,6.29-1.34,8.27l-160.93,124.42l154.17-89.02c2.78-1.6,6.3-0.79,8.12,1.84c1.81,2.64,1.29,6.23-1.2,8.24
			l-171.87,138.81l165-95.28c2.76-1.59,6.3-0.79,8.11,1.83c1.81,2.63,1.3,6.2-1.16,8.23l-174.98,143.4l168.09-97.04
			c2.76-1.62,6.27-0.81,8.09,1.8c1.83,2.62,1.35,6.18-1.11,8.22l-152.12,126.49l145.21-83.84c2.67-1.55,6.08-0.86,7.95,1.6
			c1.87,2.46,1.61,5.93-0.6,8.09l-87.49,85.69l80.19-46.31c2.44-1.37,5.49-0.97,7.44,1.03c1.96,2.01,2.32,5.08,0.86,7.47
			l-30.33,49.93l22.07-12.74c2.94-1.68,6.68-0.69,8.37,2.25c1.69,2.94,0.69,6.68-2.24,8.38l-42.79,24.7
			c-2.44,1.37-5.5,0.97-7.45-1.03c-1.95-2.01-2.32-5.08-0.86-7.46l30.33-49.93l-101.46,58.59c-2.67,1.53-6.07,0.85-7.94-1.61
			c-1.88-2.46-1.61-5.93,0.59-8.09l87.5-85.69l-165.51,95.55C4603.38,1558.07,4602.34,1558.33,4601.29,1558.33z"/>
	</g>
	<g>
		<path class="st6" d="M3316.95,1568.84h-695.86c-3.6,0-6.53-2.7-6.53-6.02V526.33c0-3.33,2.93-6,6.53-6h238.89
			c3.6,0,6.53,2.67,6.53,6v848.97h450.44c3.62,0,6.54,2.7,6.54,6.02v181.5C3323.49,1566.14,3320.57,1568.84,3316.95,1568.84z
			 M2627.62,1556.82h682.8v-169.49h-450.45c-3.61,0-6.52-2.69-6.52-6.01V532.33h-225.83V1556.82z"/>
		<path class="st7" d="M2645.12,1569.07c-2.06,0-4.05-1.01-5.25-2.82c-1.83-2.79-1.16-6.52,1.52-8.48l155.46-114.69l-172.15,99.4
			c-2.89,1.64-6.56,0.8-8.37-1.98c-1.83-2.79-1.16-6.5,1.52-8.48l148.62-109.7l-141.77,81.85c-2.84,1.64-6.44,0.81-8.28-1.86
			c-1.86-2.68-1.34-6.34,1.18-8.4l178.71-146.25l-171.61,99.08c-2.85,1.66-6.47,0.81-8.32-1.89c-1.84-2.72-1.28-6.41,1.3-8.44
			l170.75-134.93l-163.73,94.53c-2.87,1.64-6.51,0.8-8.34-1.94c-1.84-2.74-1.22-6.44,1.41-8.44l162.46-124.67l-155.52,89.78
			c-2.85,1.66-6.45,0.83-8.3-1.87s-1.32-6.36,1.23-8.4l175.87-142.06l-168.79,97.46c-2.85,1.62-6.52,0.79-8.34-1.96
			c-1.84-2.76-1.22-6.43,1.41-8.44l161.76-123.86l-154.83,89.39c-2.89,1.64-6.56,0.78-8.37-1.99c-1.83-2.77-1.16-6.5,1.51-8.46
			l150.02-111.13l-143.15,82.63c-2.86,1.64-6.48,0.8-8.32-1.91c-1.84-2.72-1.28-6.39,1.3-8.42l170.7-134.88l-163.68,94.45
			c-2.83,1.63-6.45,0.84-8.29-1.88c-1.86-2.67-1.33-6.34,1.21-8.4l176.81-143.46l-169.73,97.96c-2.83,1.63-6.45,0.84-8.29-1.86
			c-1.86-2.68-1.33-6.35,1.21-8.41l176.9-143.63l-169.81,98.04c-2.85,1.63-6.52,0.8-8.35-1.95c-1.84-2.76-1.2-6.47,1.42-8.47
			l159.15-120.92l-152.23,87.9c-2.85,1.64-6.47,0.8-8.3-1.89c-1.85-2.7-1.32-6.36,1.24-8.42l174.37-140l-167.31,96.59
			c-2.84,1.63-6.44,0.8-8.29-1.87c-1.86-2.69-1.33-6.35,1.2-8.41l177.7-144.93l-170.61,98.51c-2.84,1.62-6.46,0.81-8.29-1.89
			c-1.86-2.68-1.33-6.35,1.21-8.4l176.33-142.89l-169.24,97.71c-2.83,1.65-6.44,0.81-8.28-1.87c-1.86-2.68-1.34-6.34,1.19-8.41
			l177.78-145.07l-170.69,98.54c-2.86,1.64-6.48,0.8-8.32-1.92c-1.84-2.71-1.28-6.39,1.3-8.42l170.32-134.57l-163.3,94.29
			c-2.86,1.64-6.48,0.8-8.32-1.92c-1.84-2.72-1.28-6.4,1.31-8.44l169.46-133.46l-162.45,93.8c-2.83,1.62-6.39,0.83-8.27-1.83
			c-1.85-2.66-1.39-6.29,1.09-8.38l125.05-105.66l-117.87,68.05c-2.69,1.57-6.14,0.91-8.07-1.56c-1.92-2.45-1.73-5.96,0.42-8.2
			l68.45-71.01l-60.8,35.11c-2.06,1.17-4.58,1.09-6.56-0.18c-1.98-1.3-3.06-3.58-2.8-5.93l5.12-46.65
			c-1.75-0.31-3.36-1.37-4.32-3.03c-1.73-2.99-0.71-6.82,2.29-8.55l6.28-3.64c2.03-1.2,4.57-1.12,6.55,0.18
			c1.98,1.29,3.06,3.58,2.81,5.93l-4.93,44.84l88.56-51.14c2.7-1.54,6.15-0.9,8.06,1.57c1.93,2.45,1.76,5.96-0.42,8.2l-68.44,71
			l140.2-80.94c2.83-1.63,6.41-0.83,8.27,1.82c1.86,2.66,1.39,6.3-1.1,8.38l-125.03,105.66l177.12-102.26
			c2.85-1.64,6.48-0.81,8.32,1.91c1.84,2.72,1.28,6.4-1.31,8.43l-169.47,133.47l162.49-93.82c2.85-1.63,6.48-0.8,8.31,1.91
			c1.85,2.71,1.28,6.4-1.29,8.43l-170.33,134.58l163.33-94.31c2.84-1.63,6.45-0.8,8.28,1.86c1.86,2.68,1.34,6.36-1.18,8.41
			l-177.78,145.08l170.71-98.57c2.82-1.62,6.45-0.82,8.29,1.89c1.85,2.68,1.32,6.36-1.21,8.4L2687.2,845.2l169.28-97.74
			c2.84-1.63,6.44-0.81,8.3,1.87c1.86,2.69,1.33,6.35-1.2,8.42l-177.71,144.92l170.65-98.53c2.83-1.64,6.45-0.8,8.31,1.9
			c1.84,2.7,1.3,6.36-1.25,8.41l-174.35,140.01l167.33-96.61c2.85-1.66,6.52-0.79,8.34,1.97c1.84,2.75,1.21,6.44-1.42,8.45
			l-159.14,120.92l152.23-87.9c2.84-1.64,6.46-0.82,8.29,1.87c1.86,2.69,1.33,6.37-1.21,8.41l-176.9,143.67l169.86-98.07
			c2.84-1.63,6.44-0.82,8.29,1.88c1.85,2.69,1.32,6.35-1.21,8.4l-176.81,143.49l169.75-98c2.86-1.63,6.49-0.79,8.33,1.91
			c1.84,2.72,1.27,6.4-1.31,8.44l-170.69,134.9l163.69-94.48c2.88-1.68,6.55-0.8,8.37,1.99c1.82,2.78,1.16,6.5-1.51,8.47
			l-150.03,111.11l143.19-82.64c2.86-1.63,6.51-0.8,8.33,1.93c1.84,2.76,1.23,6.45-1.39,8.47l-161.75,123.81l154.83-89.37
			c2.84-1.61,6.45-0.82,8.3,1.87c1.86,2.69,1.33,6.36-1.22,8.41l-175.89,142.08l168.84-97.49c2.87-1.64,6.52-0.79,8.34,1.94
			c1.84,2.76,1.22,6.45-1.39,8.46l-162.48,124.65l155.56-89.8c2.86-1.66,6.49-0.83,8.33,1.91c1.85,2.7,1.27,6.37-1.3,8.42
			l-170.76,134.93l163.76-94.53c2.84-1.62,6.44-0.83,8.29,1.84c1.86,2.68,1.33,6.36-1.18,8.42l-178.7,146.21l171.62-99.08
			c2.87-1.68,6.55-0.81,8.37,1.98s1.16,6.5-1.52,8.48L2715,1475.89l172.42-99.52c2.85-1.69,6.55-0.83,8.38,1.98
			c1.81,2.79,1.15,6.5-1.53,8.48l-155.44,114.66l216.81-125.18c2.84-1.64,6.46-0.83,8.3,1.87c1.85,2.7,1.32,6.34-1.23,8.41
			l-161.71,130.99l244.86-141.38c2.85-1.66,6.52-0.78,8.36,1.98c1.83,2.77,1.18,6.48-1.47,8.46l-157.9,118.37l223.22-128.89
			c2.84-1.64,6.46-0.8,8.32,1.91c1.84,2.7,1.29,6.39-1.27,8.42l-161.75,129.26l241.91-139.66c2.84-1.64,6.44-0.83,8.3,1.85
			c1.84,2.68,1.32,6.34-1.21,8.4l-161.76,131.88l246.37-142.24c2.81-1.63,6.38-0.81,8.25,1.82c1.86,2.65,1.4,6.29-1.07,8.37
			l-160.56,136.32l169.84-98.06c2.83-1.64,6.44-0.81,8.28,1.87c1.86,2.68,1.34,6.34-1.18,8.42l-102.47,83.86l95.48-55.11
			c2.62-1.52,5.96-0.95,7.92,1.36c1.95,2.33,1.97,5.7,0.03,8.05l-55.26,66.68l47.44-27.37c2.08-1.2,4.64-1.13,6.63,0.23
			c1.99,1.32,3.04,3.69,2.71,6.04l-4.71,34.22c1.64,0.37,3.12,1.41,4.03,2.98c1.73,3,0.7,6.82-2.3,8.55l-6.27,3.6
			c-2.07,1.22-4.65,1.13-6.62-0.23c-1.99-1.33-3.04-3.67-2.71-6.04l4.41-32.12l-66.57,38.44c-2.63,1.48-5.98,0.92-7.92-1.38
			c-1.95-2.33-1.96-5.7-0.03-8.05l55.25-66.68l-131.95,76.16c-2.83,1.64-6.44,0.83-8.28-1.85c-1.86-2.68-1.34-6.32,1.18-8.41
			l102.47-83.88l-163.14,94.19c-2.82,1.62-6.4,0.83-8.26-1.82c-1.86-2.63-1.4-6.29,1.07-8.37l160.56-136.33L2989.37,1568
			c-2.84,1.62-6.43,0.81-8.29-1.87c-1.85-2.68-1.33-6.36,1.2-8.4l161.77-131.89l-246.31,142.22c-2.85,1.62-6.48,0.79-8.32-1.91
			c-1.84-2.7-1.29-6.37,1.27-8.42l161.74-129.24l-241.85,139.63c-2.88,1.66-6.54,0.81-8.36-1.96c-1.82-2.77-1.18-6.46,1.47-8.46
			l157.9-118.38l-223.18,128.86c-2.83,1.64-6.44,0.83-8.3-1.86c-1.85-2.7-1.33-6.36,1.22-8.42l161.7-130.97l-244.78,141.32
			C2647.26,1568.79,2646.18,1569.07,2645.12,1569.07z"/>
	</g>
	<g>
		<path class="st8" d="M4502.7,1570.32c-0.09-0.02-0.17,0-0.27,0h-256.75c-2.86,0-5.39-1.73-6.22-4.24l-80.08-241.85h-400.04
			l-80.08,241.85c-0.83,2.52-3.36,4.24-6.23,4.24h-256.73c-2.12,0-4.09-0.94-5.32-2.53c-1.22-1.59-1.52-3.62-0.82-5.45
			l396.62-1038.15c0.92-2.4,3.4-4.01,6.16-4.01h291.31c2.77,0,5.22,1.6,6.15,3.99l397.61,1036.71c0.76,0.98,1.2,2.17,1.2,3.45
			C4509.21,1567.63,4506.28,1570.32,4502.7,1570.32z M4250.52,1558.33h242.71L4099.66,532.17h-282.11l-392.03,1026.15h242.71
			l80.06-241.83c0.85-2.53,3.36-4.26,6.24-4.26h409.69c2.87,0,5.4,1.74,6.24,4.26L4250.52,1558.33z M4107.35,1140.35h-292.87
			c-2.08,0-4.01-0.9-5.26-2.43c-1.21-1.53-1.58-3.51-0.97-5.32c79.53-236.84,128.39-387.38,145.2-447.38
			c0.76-2.69,3.44-4.22,6.41-4.5c3.02,0.04,5.6,1.97,6.25,4.67c4.07,16.88,10.89,40.06,20.25,68.9
			c9.49,29.29,51.1,153.03,127.2,378.3c0.62,1.81,0.25,3.79-0.97,5.33C4111.37,1139.45,4109.4,1140.35,4107.35,1140.35z
			 M3823.31,1128.38h275.19c-74.46-220.4-115.22-341.67-124.63-370.65c-5.76-17.78-10.59-33.43-14.4-46.85
			C3938.52,781.1,3892.83,921.22,3823.31,1128.38z"/>
		<path class="st9" d="M4099.87,1115.44c-1.97,0-3.9-0.92-5.11-2.62c-1.86-2.63-1.41-6.25,1.03-8.35l120.32-103.31l-126.72,73.17
			c-2.78,1.62-6.33,0.83-8.2-1.76c-1.88-2.61-1.47-6.2,0.93-8.32l122.01-107.97l-129.39,74.7c-2.79,1.6-6.33,0.83-8.21-1.78
			c-1.87-2.62-1.44-6.23,0.98-8.34l119.02-103.76l-125.72,72.59c-2.84,1.66-6.47,0.81-8.31-1.92c-1.83-2.71-1.25-6.38,1.32-8.41
			l100.86-79.05l-103.8,59.93c-2.84,1.63-6.41,0.82-8.26-1.85c-1.85-2.66-1.36-6.3,1.15-8.37l110.15-91.32l-114.89,66.33
			c-2.82,1.63-6.4,0.83-8.24-1.83c-1.87-2.65-1.38-6.29,1.1-8.37l110.52-92.67l-115.56,66.72c-2.79,1.62-6.32,0.85-8.2-1.77
			c-1.88-2.59-1.48-6.19,0.93-8.32l115.3-101.92l-122,70.46c-2.84,1.6-6.41,0.81-8.26-1.85c-1.85-2.67-1.37-6.3,1.15-8.37
			l106.28-88.26l-110.74,63.95c-2.84,1.64-6.46,0.81-8.29-1.89c-1.85-2.69-1.3-6.35,1.24-8.4l99.3-79.72l-102.54,59.2
			c-2.84,1.63-6.46,0.82-8.29-1.88c-1.84-2.7-1.29-6.38,1.26-8.41l96.81-77.22l-99.52,57.46c-2.85,1.63-6.45,0.8-8.28-1.88
			c-1.84-2.69-1.3-6.35,1.23-8.39l97.16-78.19l-99.69,57.55c-2.85,1.66-6.49,0.79-8.3-1.92c-1.84-2.72-1.25-6.39,1.34-8.42
			l88.48-68.96l-89.36,51.61c-3,1.73-6.81,0.71-8.54-2.28c-1.73-2.99-0.7-6.82,2.28-8.54l167.49-96.7c2.86-1.63,6.48-0.79,8.31,1.92
			c1.84,2.72,1.25,6.39-1.34,8.42l-88.49,68.95l91.67-52.93c2.84-1.64,6.45-0.8,8.28,1.88c1.85,2.69,1.3,6.35-1.23,8.39l-97.17,78.2
			l101.59-58.65c2.83-1.64,6.45-0.8,8.29,1.89c1.84,2.7,1.29,6.36-1.26,8.4l-96.81,77.23l101.02-58.34
			c2.84-1.63,6.46-0.81,8.29,1.88c1.85,2.69,1.3,6.36-1.24,8.4l-99.28,79.71l103.82-59.95c2.8-1.63,6.39-0.82,8.26,1.85
			c1.85,2.67,1.36,6.31-1.15,8.39l-106.28,88.25l112.15-64.75c2.79-1.61,6.32-0.84,8.19,1.76c1.88,2.61,1.48,6.21-0.93,8.34
			l-115.31,101.9l123.66-71.41c2.83-1.6,6.4-0.82,8.24,1.84c1.86,2.65,1.39,6.29-1.1,8.37l-110.52,92.67l116.99-67.55
			c2.8-1.64,6.4-0.82,8.26,1.85c1.85,2.67,1.35,6.31-1.15,8.39l-110.15,91.31l116.28-67.13c2.86-1.64,6.48-0.79,8.31,1.92
			c1.84,2.7,1.26,6.38-1.32,8.4l-100.86,79.06l104.95-60.6c2.79-1.62,6.34-0.84,8.21,1.78c1.87,2.62,1.44,6.23-0.98,8.34
			l-119.01,103.76l127.33-73.51c2.78-1.62,6.32-0.84,8.19,1.75c1.88,2.62,1.48,6.22-0.93,8.33l-122.01,107.97l131.05-75.68
			c2.82-1.6,6.38-0.82,8.23,1.8c1.87,2.63,1.42,6.25-1.03,8.36l-120.32,103.3l128.28-74.06c3.01-1.72,6.8-0.71,8.53,2.28
			c1.73,2.99,0.71,6.82-2.28,8.54l-186.33,107.58C4102,1115.18,4100.94,1115.44,4099.87,1115.44z"/>
		<path class="st9" d="M4298.95,1570.14c-1.99,0-3.96-0.95-5.15-2.71c-1.85-2.69-1.32-6.33,1.21-8.39l93.87-76.14L4248,1564.25
			c-2.84,1.66-6.47,0.79-8.31-1.93c-1.84-2.72-1.25-6.39,1.34-8.42l125.73-98l-129.9,75c-2.87,1.65-6.54,0.78-8.35-1.99
			c-1.81-2.78-1.15-6.49,1.52-8.45l107.96-79.57l-109.98,63.5c-2.82,1.62-6.39,0.83-8.25-1.83c-1.86-2.64-1.38-6.28,1.1-8.37
			l136.65-114.92l-143.6,82.91c-2.83,1.62-6.42,0.82-8.26-1.87c-1.86-2.68-1.33-6.31,1.18-8.38l131.16-107.39l-136.94,79.08
			c-2.85,1.65-6.49,0.79-8.32-1.94c-1.82-2.72-1.22-6.41,1.37-8.42l118.24-91.43l-121.8,70.33c-2.84,1.65-6.48,0.8-8.31-1.93
			c-1.83-2.71-1.24-6.4,1.34-8.41l118.83-92.58l-122.58,70.79c-2.84,1.61-6.41,0.81-8.26-1.85c-1.85-2.67-1.36-6.31,1.15-8.38
			l128.56-106.19l-136.95,79.07c-2.81,1.6-6.38,0.83-8.23-1.81c-1.87-2.62-1.42-6.25,1.04-8.35l133.93-114.51l-216.17,124.81
			c-2.87,1.65-6.53,0.77-8.35-1.98c-1.81-2.77-1.15-6.47,1.5-8.45l174.32-129.46l-242.53,140.02c-2.87,1.66-6.54,0.78-8.35-1.98
			c-1.81-2.77-1.15-6.48,1.5-8.45l232.35-172.35L3908.5,1323.1c-2.91,1.67-6.67,0.74-8.44-2.11c-1.78-2.87-0.96-6.63,1.86-8.5
			l235.19-156.35l-289.35,167.06c-2.84,1.65-6.46,0.79-8.29-1.91c-1.84-2.7-1.28-6.39,1.3-8.41l164.1-129.19L3763,1323.33
			c-3.01,1.71-6.8,0.7-8.54-2.29c-1.72-2.99-0.7-6.81,2.29-8.54l317.25-183.16c2.84-1.63,6.46-0.79,8.3,1.9
			c1.84,2.71,1.28,6.4-1.3,8.42l-164.1,129.19l385.47-222.56c2.92-1.68,6.67-0.74,8.44,2.12c1.78,2.86,0.96,6.61-1.86,8.49
			l-235.15,156.33l239.58-138.34c2.85-1.66,6.53-0.79,8.36,1.99c1.81,2.76,1.15,6.47-1.51,8.45l-232.36,172.37l242.08-139.76
			c2.85-1.66,6.52-0.78,8.35,1.97c1.81,2.78,1.15,6.48-1.5,8.46l-174.31,129.46l181.06-104.54c2.81-1.62,6.36-0.82,8.23,1.81
			c1.87,2.63,1.42,6.25-1.04,8.35l-133.93,114.51l142.96-82.54c2.81-1.63,6.39-0.82,8.25,1.85c1.86,2.67,1.35,6.32-1.15,8.39
			l-128.56,106.19l136.05-78.56c2.87-1.62,6.49-0.78,8.31,1.93c1.83,2.72,1.24,6.41-1.35,8.42l-118.81,92.56l123.91-71.56
			c2.85-1.62,6.49-0.78,8.31,1.94c1.83,2.72,1.24,6.41-1.37,8.42l-118.26,91.44l123.14-71.1c2.83-1.64,6.43-0.82,8.26,1.87
			c1.86,2.68,1.33,6.32-1.18,8.39l-131.16,107.39l138.57-80.02c2.81-1.6,6.38-0.82,8.23,1.84c1.87,2.64,1.38,6.28-1.08,8.37
			l-136.65,114.91l145.35-83.93c2.86-1.65,6.53-0.79,8.35,2c1.81,2.77,1.15,6.48-1.51,8.45l-107.95,79.58l111.07-64.12
			c2.86-1.63,6.47-0.8,8.3,1.92c1.85,2.71,1.26,6.39-1.33,8.41l-125.73,97.99l131.28-75.8c2.82-1.63,6.44-0.79,8.27,1.88
			c1.85,2.69,1.32,6.34-1.22,8.4l-93.88,76.14l98.26-56.73c2.69-1.54,6.12-0.91,8.02,1.54c1.93,2.44,1.77,5.91-0.35,8.16
			l-61.39,64.9l67.44-38.94c2.44-1.38,5.49-1,7.49,0.92c2,1.95,2.47,4.99,1.14,7.45l-21.96,40.82l26.4-15.25
			c3-1.73,6.81-0.7,8.54,2.29c1.73,2.99,0.69,6.81-2.29,8.53l-45.45,26.24c-2.4,1.4-5.46,1.01-7.49-0.92
			c-2-1.96-2.47-4.99-1.14-7.46l21.96-40.82l-85.51,49.39c-2.69,1.55-6.11,0.9-8.02-1.55c-1.93-2.42-1.77-5.91,0.35-8.16l61.4-64.91
			l-129.55,74.81C4301.09,1569.87,4300.01,1570.14,4298.95,1570.14z"/>
		<path class="st9" d="M3480.25,1570.6c-2.03,0-4-0.97-5.2-2.75c-1.83-2.72-1.24-6.4,1.34-8.42l187.83-146.5l-235.86,136.18
			c-2.95,1.69-6.68,0.73-8.45-2.14c-1.76-2.89-0.92-6.66,1.92-8.5l432.79-281.87l-403.51,232.97c-2.93,1.69-6.66,0.74-8.44-2.12
			c-1.78-2.88-0.95-6.64,1.87-8.5l354.67-234.09l-326.65,188.61c-2.96,1.68-6.68,0.73-8.45-2.14c-1.77-2.89-0.93-6.65,1.89-8.5
			l262.48-172.06l-238.82,137.88c-2.91,1.64-6.58,0.76-8.38-2.03c-1.8-2.81-1.08-6.53,1.64-8.48l241.44-171.99l-211.65,122.2
			c-2.91,1.66-6.63,0.77-8.42-2.1c-1.79-2.84-1-6.6,1.78-8.49l171.31-116.34l-149.06,86.07c-2.87,1.68-6.57,0.76-8.37-2.03
			c-1.81-2.81-1.1-6.53,1.61-8.47l210.99-151.16l-182.78,105.54c-2.88,1.67-6.57,0.78-8.38-2.03c-1.81-2.8-1.11-6.53,1.6-8.47
			l206.52-147.81l-178.69,103.16c-2.89,1.64-6.53,0.76-8.35-1.98c-1.81-2.76-1.16-6.46,1.49-8.44l225.67-168.37l-193.11,111.49
			c-2.92,1.66-6.63,0.75-8.41-2.08c-1.79-2.84-1.01-6.59,1.75-8.49l166.29-114.14l-143.67,82.95c-2.87,1.66-6.53,0.78-8.34-1.98
			c-1.82-2.75-1.17-6.45,1.48-8.44l218.19-162.93l-186.17,107.5c-2.9,1.69-6.6,0.75-8.39-2.07c-1.8-2.82-1.06-6.55,1.68-8.46
			l174.34-121.99l-150.09,86.67c-2.91,1.68-6.6,0.77-8.41-2.08c-1.8-2.83-1.03-6.57,1.73-8.47l161.91-112.1l-139.06,80.3
			c-2.88,1.67-6.6,0.77-8.39-2.07c-1.8-2.83-1.05-6.57,1.7-8.47l161.45-112.26l-138.36,79.9c-2.91,1.67-6.65,0.75-8.43-2.1
			c-1.78-2.85-0.99-6.61,1.81-8.5l289.62-195.75L3708.8,815.08c-2.92,1.69-6.63,0.76-8.43-2.1c-1.78-2.85-1-6.61,1.8-8.49
			l259.47-176.09l-232.9,134.48c-2.88,1.66-6.54,0.78-8.36-2c-1.81-2.76-1.13-6.47,1.53-8.44l222.93-164.03l-191.75,110.71
			c-2.84,1.63-6.41,0.82-8.27-1.87c-1.86-2.68-1.32-6.34,1.2-8.39l144.45-117.47L3776.83,637c-2.81,1.62-6.38,0.82-8.22-1.81
			c-1.87-2.64-1.41-6.27,1.06-8.37l70.56-59.9l-46.98,27.13c-2.36,1.37-5.37,1.03-7.38-0.85c-2.02-1.86-2.57-4.83-1.37-7.29
			l23.73-49.07c-0.7-0.49-1.32-1.16-1.79-1.96c-1.73-2.99-0.69-6.81,2.29-8.53l8.03-4.64c2.38-1.36,5.38-1.01,7.37,0.84
			c2.02,1.86,2.57,4.83,1.37,7.28l-20.92,43.22l89.23-51.51c2.8-1.61,6.38-0.84,8.24,1.81c1.86,2.63,1.4,6.27-1.07,8.36l-70.56,59.9
			l121.59-70.21c2.83-1.62,6.42-0.82,8.28,1.87c1.84,2.69,1.32,6.34-1.21,8.39l-144.46,117.49l221.59-127.93
			c2.87-1.68,6.55-0.79,8.36,1.99c1.81,2.77,1.15,6.48-1.52,8.45l-222.92,164.01l284.2-164.09c2.91-1.67,6.62-0.76,8.42,2.1
			c1.78,2.84,1,6.6-1.8,8.49L3851.5,718.26l265.82-153.49c2.93-1.67,6.64-0.74,8.42,2.1c1.79,2.86,1,6.61-1.8,8.5l-289.62,195.76
			l114.3-66c2.91-1.66,6.6-0.76,8.39,2.06c1.8,2.83,1.04,6.57-1.7,8.48l-161.46,112.27l142.34-82.18c2.91-1.67,6.63-0.76,8.41,2.07
			c1.79,2.83,1.03,6.57-1.73,8.48l-161.9,112.07l142.43-82.25c2.91-1.66,6.6-0.76,8.39,2.06c1.79,2.82,1.05,6.55-1.68,8.46
			l-174.34,122l153.51-88.64c2.85-1.67,6.53-0.78,8.34,1.98c1.82,2.76,1.18,6.46-1.47,8.44l-218.2,162.93l190.72-110.11
			c2.9-1.68,6.61-0.77,8.4,2.08c1.79,2.84,1.01,6.59-1.74,8.49L3729.03,1018l146.43-84.55c2.85-1.66,6.53-0.78,8.35,1.98
			c1.82,2.77,1.17,6.47-1.49,8.45l-225.66,168.36l197.3-113.92c2.91-1.65,6.6-0.77,8.38,2.02c1.81,2.81,1.1,6.53-1.61,8.47
			l-206.51,147.8l182.34-105.28c2.91-1.64,6.59-0.77,8.39,2.03c1.81,2.81,1.09,6.52-1.61,8.46l-211.02,151.18l187.01-107.98
			c2.91-1.68,6.62-0.77,8.43,2.1c1.79,2.84,0.99,6.6-1.78,8.48l-171.33,116.35l176.82-102.09c2.88-1.68,6.57-0.78,8.39,2.03
			c1.81,2.8,1.09,6.53-1.63,8.46l-241.45,172l316.39-182.67c2.94-1.69,6.68-0.72,8.45,2.14c1.78,2.88,0.93,6.65-1.89,8.51
			l-262.44,172.03l316.6-182.8c2.94-1.68,6.67-0.74,8.45,2.12c1.78,2.88,0.94,6.65-1.88,8.51l-354.69,234.1l424.17-244.9
			c2.97-1.68,6.68-0.73,8.46,2.14c1.77,2.89,0.92,6.67-1.91,8.51l-432.77,281.84l112.1-64.72c2.86-1.64,6.5-0.79,8.3,1.92
			c1.83,2.72,1.25,6.39-1.33,8.42L3554.96,1514l159.65-92.18c2.76-1.62,6.31-0.83,8.18,1.74c1.88,2.59,1.5,6.18-0.89,8.32
			l-107.73,96.59l80.72-46.61c2.63-1.47,5.95-0.93,7.89,1.37c1.96,2.3,1.98,5.68,0.05,8l-40.84,49.71l16.66-9.62
			c3-1.73,6.8-0.7,8.53,2.29c1.73,2.99,0.71,6.81-2.28,8.54l-46.45,26.81c-2.62,1.49-5.94,0.94-7.89-1.38
			c-1.96-2.3-1.98-5.67-0.06-8l40.84-49.72l-102.93,59.45c-2.8,1.6-6.31,0.83-8.19-1.75c-1.88-2.58-1.5-6.17,0.89-8.31l107.73-96.59
			l-185.49,107.1C3482.38,1570.34,3481.3,1570.6,3480.25,1570.6z"/>
		<path class="st9" d="M3947.07,1245.14c-2.13,0-4.23-1.07-5.45-3c-1.9-3-1-6.97,2.01-8.88l345.38-217.99
			c3.02-1.88,6.99-0.99,8.88,2.01c1.9,2.99,1,6.98-2.01,8.88l-345.39,217.99C3949.43,1244.81,3948.24,1245.14,3947.07,1245.14z"/>
	</g>
	<g>
		<path class="st10" d="M6637.22,1570.32c-0.09-0.02-0.17,0-0.27,0h-256.75c-2.86,0-5.39-1.73-6.22-4.24l-80.08-241.85h-400.04
			l-80.08,241.85c-0.83,2.52-3.36,4.24-6.23,4.24h-256.73c-2.12,0-4.09-0.94-5.32-2.53c-1.22-1.59-1.52-3.62-0.82-5.45
			l396.62-1038.15c0.92-2.4,3.4-4.01,6.16-4.01h291.31c2.77,0,5.22,1.6,6.15,3.99l397.61,1036.71c0.76,0.98,1.2,2.17,1.2,3.45
			C6643.74,1567.63,6640.8,1570.32,6637.22,1570.32z M6385.04,1558.33h242.71L6234.18,532.17h-282.11l-392.03,1026.15h242.71
			l80.06-241.83c0.85-2.53,3.36-4.26,6.24-4.26h409.69c2.87,0,5.4,1.74,6.24,4.26L6385.04,1558.33z M6241.87,1140.35H5949
			c-2.08,0-4.01-0.9-5.26-2.43c-1.21-1.53-1.58-3.51-0.97-5.32c79.53-236.84,128.39-387.38,145.2-447.38
			c0.76-2.69,3.44-4.22,6.41-4.5c3.02,0.04,5.6,1.97,6.25,4.67c4.07,16.88,10.89,40.06,20.25,68.9
			c9.49,29.29,51.1,153.03,127.2,378.3c0.62,1.81,0.25,3.79-0.97,5.33C6245.89,1139.45,6243.92,1140.35,6241.87,1140.35z
			 M5957.84,1128.38h275.19c-74.46-220.4-115.22-341.67-124.63-370.65c-5.76-17.78-10.59-33.43-14.4-46.85
			C6073.05,781.1,6027.35,921.22,5957.84,1128.38z"/>
		<path class="st11" d="M6234.4,1115.44c-1.97,0-3.9-0.92-5.11-2.62c-1.86-2.63-1.41-6.25,1.03-8.35l120.32-103.31l-126.72,73.17
			c-2.78,1.62-6.33,0.83-8.2-1.76c-1.88-2.61-1.47-6.2,0.93-8.32l122.01-107.97l-129.39,74.7c-2.79,1.6-6.33,0.83-8.21-1.78
			c-1.87-2.62-1.44-6.23,0.98-8.34l119.02-103.76l-125.72,72.59c-2.84,1.66-6.47,0.81-8.31-1.92c-1.83-2.71-1.25-6.38,1.32-8.41
			l100.86-79.05l-103.8,59.93c-2.84,1.63-6.41,0.82-8.26-1.85c-1.85-2.66-1.36-6.3,1.15-8.37l110.15-91.32l-114.89,66.33
			c-2.82,1.63-6.4,0.83-8.24-1.83c-1.87-2.65-1.38-6.29,1.1-8.37l110.52-92.67l-115.55,66.72c-2.79,1.62-6.32,0.85-8.2-1.77
			c-1.88-2.59-1.48-6.19,0.93-8.32l115.3-101.92l-122,70.46c-2.83,1.6-6.41,0.81-8.26-1.85c-1.85-2.67-1.37-6.3,1.15-8.37
			l106.28-88.26l-110.74,63.95c-2.84,1.64-6.46,0.81-8.29-1.89c-1.85-2.69-1.3-6.35,1.24-8.4l99.3-79.72l-102.54,59.2
			c-2.84,1.63-6.46,0.82-8.29-1.88c-1.84-2.7-1.29-6.38,1.26-8.41l96.81-77.22l-99.52,57.46c-2.85,1.63-6.45,0.8-8.28-1.88
			c-1.84-2.69-1.3-6.35,1.23-8.39l97.16-78.19l-99.69,57.55c-2.85,1.66-6.49,0.79-8.3-1.92c-1.84-2.72-1.25-6.39,1.34-8.42
			l88.48-68.96l-89.36,51.61c-3,1.73-6.81,0.71-8.54-2.28c-1.73-2.99-0.7-6.82,2.28-8.54l167.49-96.7c2.86-1.63,6.48-0.79,8.31,1.92
			c1.84,2.72,1.25,6.39-1.34,8.42l-88.49,68.95l91.67-52.93c2.84-1.64,6.45-0.8,8.28,1.88c1.85,2.69,1.3,6.35-1.23,8.39l-97.17,78.2
			l101.59-58.65c2.83-1.64,6.45-0.8,8.29,1.89c1.84,2.7,1.29,6.36-1.26,8.4l-96.81,77.23l101.02-58.34
			c2.84-1.63,6.46-0.81,8.29,1.88c1.85,2.69,1.3,6.36-1.24,8.4l-99.28,79.71l103.82-59.95c2.8-1.63,6.38-0.82,8.26,1.85
			c1.85,2.67,1.36,6.31-1.15,8.39l-106.28,88.25l112.15-64.75c2.79-1.61,6.32-0.84,8.19,1.76c1.88,2.61,1.48,6.21-0.93,8.34
			l-115.31,101.9l123.66-71.41c2.83-1.6,6.4-0.82,8.24,1.84c1.86,2.65,1.39,6.29-1.1,8.37l-110.52,92.67l116.99-67.55
			c2.8-1.64,6.4-0.82,8.26,1.85c1.85,2.67,1.35,6.31-1.15,8.39l-110.15,91.31l116.28-67.13c2.86-1.64,6.48-0.79,8.31,1.92
			c1.84,2.7,1.26,6.38-1.32,8.4l-100.86,79.06l104.95-60.6c2.79-1.62,6.34-0.84,8.21,1.78c1.87,2.62,1.44,6.23-0.98,8.34
			l-119.01,103.76l127.33-73.51c2.78-1.62,6.32-0.84,8.19,1.75c1.88,2.62,1.48,6.22-0.92,8.33l-122.01,107.97l131.05-75.68
			c2.82-1.6,6.38-0.82,8.23,1.8c1.87,2.63,1.42,6.25-1.03,8.36l-120.32,103.3l128.28-74.06c3.01-1.72,6.8-0.71,8.53,2.28
			c1.73,2.99,0.71,6.82-2.28,8.54l-186.34,107.58C6236.53,1115.18,6235.46,1115.44,6234.4,1115.44z"/>
		<path class="st11" d="M6433.47,1570.14c-1.99,0-3.96-0.95-5.15-2.71c-1.85-2.69-1.32-6.33,1.21-8.39l93.87-76.14l-140.88,81.36
			c-2.84,1.66-6.47,0.79-8.31-1.93c-1.84-2.72-1.25-6.39,1.34-8.42l125.73-98l-129.9,75c-2.87,1.65-6.54,0.78-8.35-1.99
			c-1.81-2.78-1.15-6.49,1.52-8.45l107.96-79.57l-109.98,63.5c-2.82,1.62-6.39,0.83-8.25-1.83c-1.86-2.64-1.38-6.28,1.1-8.37
			l136.65-114.92l-143.6,82.91c-2.83,1.62-6.42,0.82-8.26-1.87c-1.86-2.68-1.33-6.31,1.18-8.38l131.16-107.39l-136.94,79.08
			c-2.85,1.65-6.49,0.79-8.32-1.94c-1.82-2.72-1.22-6.41,1.37-8.42l118.24-91.43l-121.8,70.33c-2.84,1.65-6.48,0.8-8.31-1.93
			c-1.83-2.71-1.24-6.4,1.34-8.41l118.83-92.58l-122.58,70.79c-2.84,1.61-6.41,0.81-8.26-1.85c-1.85-2.67-1.36-6.31,1.15-8.38
			l128.56-106.19l-136.95,79.07c-2.81,1.6-6.38,0.83-8.23-1.81c-1.87-2.62-1.42-6.25,1.04-8.35l133.93-114.51l-216.17,124.81
			c-2.87,1.65-6.53,0.77-8.35-1.98c-1.81-2.77-1.15-6.47,1.5-8.45l174.32-129.46l-242.53,140.02c-2.87,1.66-6.54,0.78-8.35-1.98
			c-1.81-2.77-1.15-6.48,1.5-8.45l232.35-172.35l-316.83,182.93c-2.91,1.67-6.67,0.74-8.44-2.11c-1.78-2.87-0.96-6.63,1.86-8.5
			l235.19-156.35l-289.35,167.06c-2.84,1.65-6.46,0.79-8.29-1.91c-1.84-2.7-1.28-6.39,1.3-8.41l164.1-129.19l-241.88,139.65
			c-3.01,1.71-6.8,0.7-8.54-2.29c-1.72-2.99-0.7-6.81,2.29-8.54l317.25-183.16c2.84-1.63,6.46-0.79,8.3,1.9
			c1.84,2.71,1.28,6.4-1.3,8.42l-164.1,129.19l385.47-222.56c2.92-1.68,6.67-0.74,8.44,2.12c1.78,2.86,0.96,6.61-1.86,8.49
			l-235.15,156.33l239.58-138.34c2.85-1.66,6.53-0.79,8.36,1.99c1.81,2.76,1.15,6.47-1.51,8.45l-232.36,172.37l242.08-139.76
			c2.85-1.66,6.52-0.78,8.35,1.97c1.81,2.78,1.15,6.48-1.5,8.46L6297,1257.83l181.06-104.54c2.81-1.62,6.36-0.82,8.23,1.81
			c1.87,2.63,1.42,6.25-1.04,8.35l-133.93,114.51l142.96-82.54c2.81-1.63,6.39-0.82,8.25,1.85c1.86,2.67,1.35,6.32-1.15,8.39
			l-128.56,106.19l136.05-78.56c2.87-1.62,6.49-0.78,8.31,1.93c1.83,2.72,1.24,6.41-1.35,8.42l-118.81,92.56l123.91-71.56
			c2.85-1.62,6.49-0.78,8.31,1.94c1.83,2.72,1.24,6.41-1.37,8.42l-118.26,91.44l123.14-71.1c2.83-1.64,6.43-0.82,8.26,1.87
			c1.86,2.68,1.33,6.32-1.18,8.39l-131.16,107.39l138.57-80.02c2.81-1.6,6.38-0.82,8.23,1.84c1.87,2.64,1.38,6.28-1.08,8.37
			l-136.65,114.91l145.35-83.93c2.86-1.65,6.53-0.79,8.35,2c1.81,2.77,1.15,6.48-1.51,8.45l-107.95,79.58l111.07-64.12
			c2.86-1.63,6.47-0.8,8.3,1.92c1.85,2.71,1.26,6.39-1.33,8.41l-125.73,97.99l131.28-75.8c2.82-1.63,6.44-0.79,8.27,1.88
			c1.85,2.69,1.32,6.34-1.22,8.4l-93.88,76.14l98.26-56.73c2.69-1.54,6.12-0.91,8.02,1.54c1.93,2.44,1.77,5.91-0.35,8.16
			l-61.39,64.9l67.44-38.94c2.44-1.38,5.49-1,7.49,0.92c2,1.95,2.47,4.99,1.14,7.45l-21.96,40.82l26.4-15.25
			c3-1.73,6.81-0.7,8.54,2.29c1.73,2.99,0.69,6.81-2.29,8.53l-45.45,26.24c-2.4,1.4-5.46,1.01-7.49-0.92
			c-2-1.96-2.47-4.99-1.14-7.46l21.96-40.82l-85.51,49.39c-2.69,1.55-6.11,0.9-8.02-1.55c-1.93-2.42-1.77-5.91,0.35-8.16l61.4-64.91
			l-129.55,74.81C6435.61,1569.87,6434.53,1570.14,6433.47,1570.14z"/>
		<path class="st11" d="M5614.77,1570.6c-2.03,0-4-0.97-5.2-2.75c-1.83-2.72-1.24-6.4,1.34-8.42l187.83-146.5l-235.86,136.18
			c-2.95,1.69-6.68,0.73-8.45-2.14c-1.76-2.89-0.92-6.66,1.92-8.5l432.79-281.87l-403.51,232.97c-2.93,1.69-6.66,0.74-8.44-2.12
			c-1.78-2.88-0.95-6.64,1.87-8.5l354.67-234.09l-326.65,188.61c-2.96,1.68-6.68,0.73-8.45-2.14c-1.77-2.89-0.93-6.65,1.89-8.5
			L5863,1250.76l-238.82,137.88c-2.91,1.64-6.58,0.76-8.38-2.03c-1.8-2.81-1.08-6.53,1.64-8.48l241.44-171.99l-211.65,122.2
			c-2.91,1.66-6.63,0.77-8.42-2.1c-1.79-2.84-1-6.6,1.78-8.49l171.31-116.34l-149.06,86.07c-2.87,1.68-6.57,0.76-8.37-2.03
			c-1.81-2.81-1.1-6.53,1.61-8.47l210.99-151.16l-182.78,105.54c-2.88,1.67-6.57,0.78-8.38-2.03c-1.81-2.8-1.11-6.53,1.6-8.47
			l206.52-147.81l-178.69,103.16c-2.89,1.64-6.53,0.76-8.35-1.98c-1.81-2.76-1.16-6.46,1.49-8.44l225.67-168.37l-193.11,111.49
			c-2.92,1.66-6.63,0.75-8.41-2.08c-1.79-2.84-1.01-6.59,1.75-8.49l166.29-114.14l-143.67,82.95c-2.87,1.66-6.53,0.78-8.34-1.98
			c-1.82-2.75-1.17-6.45,1.48-8.44l218.19-162.93l-186.17,107.5c-2.9,1.69-6.6,0.75-8.39-2.07c-1.8-2.82-1.06-6.55,1.68-8.46
			l174.34-121.99l-150.09,86.67c-2.91,1.68-6.6,0.77-8.41-2.08c-1.8-2.83-1.03-6.57,1.73-8.47l161.91-112.1l-139.06,80.3
			c-2.88,1.67-6.6,0.77-8.39-2.07c-1.8-2.83-1.05-6.57,1.7-8.47l161.45-112.26l-138.36,79.9c-2.92,1.67-6.65,0.75-8.43-2.1
			c-1.78-2.85-0.99-6.61,1.81-8.5l289.62-195.75l-261.94,151.23c-2.92,1.69-6.63,0.76-8.43-2.1c-1.78-2.85-1-6.61,1.8-8.49
			l259.47-176.09l-232.9,134.48c-2.88,1.66-6.54,0.78-8.36-2c-1.81-2.76-1.13-6.47,1.53-8.44l222.93-164.03l-191.75,110.71
			c-2.83,1.63-6.41,0.82-8.27-1.87c-1.86-2.68-1.32-6.34,1.2-8.39l144.45-117.47L5911.35,637c-2.81,1.62-6.38,0.82-8.22-1.81
			c-1.87-2.64-1.41-6.27,1.06-8.37l70.56-59.9l-46.98,27.13c-2.36,1.37-5.37,1.03-7.38-0.85c-2.02-1.86-2.57-4.83-1.37-7.29
			l23.73-49.07c-0.7-0.49-1.32-1.16-1.79-1.96c-1.73-2.99-0.69-6.81,2.29-8.53l8.03-4.64c2.38-1.36,5.38-1.01,7.37,0.84
			c2.02,1.86,2.57,4.83,1.37,7.28l-20.92,43.22l89.23-51.51c2.8-1.61,6.38-0.84,8.24,1.81c1.86,2.63,1.4,6.27-1.07,8.36l-70.56,59.9
			l121.59-70.21c2.83-1.62,6.42-0.82,8.28,1.87c1.84,2.69,1.32,6.34-1.21,8.39l-144.46,117.49l221.59-127.93
			c2.87-1.68,6.55-0.79,8.36,1.99c1.81,2.77,1.15,6.48-1.52,8.45l-222.92,164.01l284.2-164.09c2.91-1.67,6.62-0.76,8.42,2.1
			c1.78,2.84,1,6.6-1.8,8.49l-259.47,176.08l265.82-153.49c2.93-1.67,6.64-0.74,8.42,2.1c1.79,2.86,1,6.61-1.8,8.5l-289.62,195.76
			l114.3-66c2.91-1.66,6.6-0.76,8.39,2.06c1.8,2.83,1.04,6.57-1.7,8.48l-161.46,112.27l142.34-82.18c2.91-1.67,6.63-0.76,8.41,2.07
			c1.79,2.83,1.03,6.57-1.73,8.48l-161.9,112.07l142.43-82.25c2.91-1.66,6.6-0.76,8.39,2.06c1.79,2.82,1.05,6.55-1.68,8.46
			l-174.34,122l153.51-88.64c2.85-1.67,6.53-0.78,8.34,1.98c1.82,2.76,1.18,6.46-1.47,8.44l-218.2,162.93l190.72-110.11
			c2.9-1.68,6.61-0.77,8.4,2.08c1.79,2.84,1.01,6.59-1.74,8.49L5863.55,1018l146.43-84.55c2.85-1.66,6.53-0.78,8.35,1.98
			c1.82,2.77,1.17,6.47-1.49,8.45l-225.66,168.36l197.3-113.92c2.92-1.65,6.6-0.77,8.38,2.02c1.81,2.81,1.1,6.53-1.61,8.47
			l-206.51,147.8l182.34-105.28c2.91-1.64,6.59-0.77,8.39,2.03c1.81,2.81,1.09,6.52-1.61,8.46l-211.02,151.18l187.01-107.98
			c2.91-1.68,6.62-0.77,8.43,2.1c1.79,2.84,0.99,6.6-1.78,8.48l-171.33,116.35L5966,1129.87c2.88-1.68,6.57-0.78,8.39,2.03
			c1.81,2.8,1.09,6.53-1.63,8.46l-241.45,172l316.39-182.67c2.94-1.69,6.68-0.72,8.45,2.14c1.78,2.88,0.93,6.65-1.89,8.51
			l-262.44,172.03l316.6-182.8c2.94-1.68,6.67-0.74,8.45,2.12c1.78,2.88,0.94,6.65-1.88,8.51l-354.69,234.1l424.17-244.9
			c2.97-1.68,6.68-0.73,8.46,2.14c1.77,2.89,0.92,6.67-1.91,8.51l-432.77,281.84l112.1-64.72c2.86-1.64,6.5-0.79,8.3,1.92
			c1.83,2.72,1.25,6.39-1.33,8.42L5689.48,1514l159.65-92.18c2.76-1.62,6.31-0.83,8.18,1.74c1.88,2.59,1.5,6.18-0.89,8.32
			l-107.73,96.59l80.72-46.61c2.63-1.47,5.95-0.93,7.89,1.37c1.96,2.3,1.98,5.68,0.05,8l-40.84,49.71l16.66-9.62
			c3-1.73,6.8-0.7,8.53,2.29c1.73,2.99,0.71,6.81-2.28,8.54l-46.45,26.81c-2.62,1.49-5.94,0.94-7.89-1.38
			c-1.96-2.3-1.98-5.67-0.06-8l40.84-49.72l-102.93,59.45c-2.8,1.6-6.31,0.83-8.19-1.75c-1.88-2.58-1.5-6.17,0.89-8.31l107.73-96.59
			l-185.49,107.1C5616.9,1570.34,5615.82,1570.6,5614.77,1570.6z"/>
		<path class="st11" d="M6081.59,1245.14c-2.13,0-4.23-1.07-5.45-3c-1.9-3-1-6.97,2.01-8.88l345.38-217.99
			c3.02-1.88,6.99-0.99,8.88,2.01c1.9,2.99,1,6.98-2.01,8.88l-345.39,217.99C6083.95,1244.81,6082.76,1245.14,6081.59,1245.14z"/>
	</g>
	<g>
		<g>
			<path class="st7" d="M6263.93,1802.48c-14.86,153.8-310.99,414.01-332,430.3c-9.26,7.63-49.47,42.57-64.87,53.97
				c8.62,0.06,161.82-79.23,217.87-130.55c79.67-72.97,187.59-166.59,243.59-275.65c13.39-26.07,27.79-51.88,39.21-78.36
				C6334.69,1802.4,6300.06,1802.5,6263.93,1802.48z"/>
		</g>
		<g>
			<path class="st12" d="M5293.01,1740.74l50.09-40.79l16.1-13.68l64.7-55.81c8.52-7.44,17.08-14.84,25.64-22.26
				c-1363.53,29.22-3905.77,86.05-3905.77,86.05s-30.75,1.76-32.93,13.2c-0.06,0.06-0.23,0.1-0.23,0.14c0,0.21,0.1,0.37,0.1,0.6
				c0.01,0.23-0.09,0.39-0.09,0.62c0,0.04,0.17,0.04,0.23,0.08c2.37,11.46,33.14,12.99,33.14,12.99s2212.99,38.98,3692.1,62.07
				l22.01-16.46C5269.79,1758.79,5281.4,1750.01,5293.01,1740.74z"/>
			<path class="st12" d="M6692.56,1695.33c0.52-8.06,3.05-101.47-167.79-103.79c-19.19-0.25-39.61-0.41-60.56-0.56
				c0,0-445.76,6.34-803.38,12.99c-7.81,5.7-15.59,11.36-23.73,17.47c-45.86,34.42-92.7,72.15-133,104.81l-67.63,54.1l-8.35,6.57
				c546.74,8.25,1033.77,14.8,1098.33,13.43C6697.22,1796.74,6693.2,1703.37,6692.56,1695.33z M6490.71,1729.92l-58.49,0.23
				l-16.35,0.06l-102.44,0.37l-57.55,0.23l-170.2,0.62c-26.4,0.1-47.94-14.99-48.08-33.7c-0.17-18.7,21.14-33.95,47.55-34.05
				l405.04-1.49c26.41-0.1,47.96,15,48.1,33.7C6538.44,1714.61,6517.12,1729.84,6490.71,1729.92z"/>
		</g>
		<path class="st7" d="M6414.34,1599.08c-0.23-2.59-0.5-5.41-0.73-8.1c-1.93-21.72-4.5-46.2-11.94-73.64
			c-8.02-30.63-20.91-65.04-43.75-98.7c-22.47-33.64-55.77-65.62-96.89-87.09c-40.81-22.32-87.85-33.6-135.52-37.08
			c-47.81-3.01-96.79,1.7-145.33,13.04c-48.7,10.9-96.89,28.75-144.37,51.21c-11.75,6.03-23.48,11.54-35.42,18.28
			c-11.07,6.28-21.56,11.63-33.35,18.8c-23.42,13.68-45.93,27.67-68.35,42.74c-74.34,49.33-145.33,107.98-215.96,168.95
			c-14.99,12.93-29.97,25.95-44.95,39.03c-21.43,18.49-43.05,37.14-64.83,55.92l-16.39,13.93l-16.33,13.37
			c-11.29,9.16-22.61,18.36-33.99,27.61c-11.77,9.39-23.57,18.32-35.42,27.17c-11.02,8.25-22.09,16.41-33.26,24.83
			c-24.06,16.33-47.57,33.76-72.4,49.47c-98.43,64.21-203.92,121.72-313.47,170.76c-109.66,48.85-222.98,89.95-336.79,123.32
			c-57,16.27-113.97,31.23-170.82,43.69c-56.79,13.24-113.37,22.86-169.16,29.86c-224.33,27.98-437.6,12.48-616.74-14.92
			c-179.59-27.69-326.4-67.27-428.08-97.45c-50.85-15.21-90.51-28.21-117.46-37.31c-26.92-9.2-41.27-14.12-41.27-14.12
			s14.23,5.27,40.91,15.15c26.73,9.78,66.06,23.77,116.57,40.27c101.03,32.74,247.05,76.12,426.84,108.5
			c179.38,32.02,393.87,53.24,622.68,30.55c57.31-5.58,115.05-14.53,172.87-25.41c58.01-10.49,116.29-23.48,174.78-37.85
			c116.75-29.55,233.64-67.07,347.59-112.83c113.85-45.95,224.38-100.89,328.52-163.44c26.26-15.28,51.28-32.39,76.81-48.42
			c24.83-17.22,50.47-34.44,74.15-51.94c11.71-8.81,23.38-17.58,35.01-26.32l5.93-4.5l11.98-9.1l17.22-13.56
			c22.67-18.14,45.2-36.14,67.52-54.01c45.33-36.73,89.64-72.27,133.62-105.28c41.91-31.46,83.55-60.66,125.49-86.26
			c21.37-13.24,43.09-25.59,63.86-36.73c10.05-5.7,22.18-11.4,33.02-17.01c9.99-5.2,20.85-9.82,31.11-14.65
			c41.89-17.97,83.75-31.69,124.25-39.17c80.81-16.21,156.08-7.65,203.54,20.99c48.25,27.65,68.93,72.87,78.18,114.4
			c3.4,15.56,5.27,30.8,6.18,44.93c1.51,23.46,0.35,43.96-0.97,58.14c-0.19,2.94-0.37,5.74-0.54,8.33
			c-0.25,1.97-0.48,3.71-0.68,5.51c-0.14,1.06-0.29,2.22-0.41,3.21c-0.68,5.37-1.27,9.91-1.72,13.56c-0.93,7.29-2.3,24.37-2.3,24.37
			l127.5,0.27c0,0,0.35-3.79,1.02-11.11c0.31-3.65,0.73-8.21,1.2-13.6c0.25-2.71,0.52-5.62,0.79-8.75c0.12-2.65,0.25-5.55,0.37-8.43
			c0.04-1.12,0.1-2.11,0.15-3.27c0.27-8.29,0.79-17.66,0.87-27.73C6414.96,1621.57,6414.65,1610.77,6414.34,1599.08z"/>
	</g>
	<g>
		<path class="st13" d="M1528.81,2194.51c0-46.8,13.86-93.16,41.6-139.09c-32.07-20.36-48.1-50.47-48.1-90.34
			c0-48.1,21.23-90.77,63.7-128.04c47.66-42.02,109.19-63.05,184.59-63.05c34.66,0,71.92,4.99,111.79,14.95
			c9.1,2.17,47.87,18.96,116.34,50.37c68.46,31.42,117.64,47.12,147.54,47.12c19.93,0,34.87-5.63,44.85-16.9
			c5.2-5.63,7.8-11.7,7.8-18.2c0-6.5-2.82-12.35-8.45-17.55c-3.04-4.33-4.55-7.15-4.55-8.45s1.19-1.95,3.57-1.95
			c2.38,0,6.5,3.8,12.35,11.37c5.85,7.59,8.77,16.47,8.77,26.65c0,10.19-6.82,19.94-20.47,29.25
			c-13.65,9.32-30.87,13.97-51.67,13.97c-32.5,0-82.98-15.7-151.44-47.12c-68.47-31.41-111.47-48.85-129.02-52.32
			c-17.55-3.46-37.6-5.2-60.12-5.2c-89.7,0-160.33,29.04-211.89,87.09c-6.07,6.5-13.22,19.61-21.45,39.32
			c-8.24,19.72-12.35,38.67-12.35,56.87c0,25.13,8.88,44.63,26.65,58.5c22.53-32.92,49.17-59.15,79.95-78.65
			c30.76-19.5,61.96-29.25,93.59-29.25c39,0,58.5,15.17,58.5,45.5c0,36.4-21.35,75.94-64.02,118.62
			c-42.68,42.68-82.22,64.02-118.62,64.02c-23.4,0-35.1-9.96-35.1-29.9c0-6.93,1.84-13,5.52-18.2c3.68-5.2,8.12-7.15,13.32-5.85
			l-1.3,14.95c0,6.5,9.96,9.75,29.9,9.75c29.46,0,60.55-15.16,93.27-45.5c32.71-30.33,52.54-60.01,59.47-89.05
			c1.73-6.5,2.6-12.35,2.6-17.55c0-19.5-12.46-29.25-37.37-29.25c-24.92,0-50.7,9.54-77.35,28.6c-26.65,19.07-51.67,44.2-75.07,75.4
			c1.73,0.87,8.45,2.6,20.15,5.2l39,1.3c19.06,0.87,28.6,3.04,28.6,6.5c0,6.07-9.1,9.1-27.3,9.1c-1.3,0-2.6,0-3.9,0
			c-26.44,0-48.1-3.25-65-9.75c-33.37,51.13-50.05,98.14-50.05,141.04c0,55.46,21.45,83.2,64.35,83.2
			c48.52,0,99.01-33.8,151.44-101.39l127.39-189.79c47.66-69.32,89.04-104.86,124.14-106.59l24.7,5.85
			c7.8,4.34,11.7,10.84,11.7,19.5c0,8.67-2.17,13-6.5,13l-20.8-3.25c-29.9,0-68.25,32.29-115.04,96.84l-129.34,180.69
			c-55.47,64.56-108.54,96.84-159.24,96.84c-34.67,0-58.61-9.32-71.82-27.95C1535.42,2257.12,1528.81,2230.05,1528.81,2194.51z"/>
		<path class="st13" d="M2094.28,2235.46c-25.57,0-38.35-14.95-38.35-44.85c0-16.9,5.95-35.64,17.87-56.22
			c11.91-20.58,26.54-44.74,43.87-72.47c-55.47,27.73-105.73,68.68-150.79,122.84c-25.14,37.7-39.86,56.55-44.2,56.55
			c-12.56,0-18.85-3.68-18.85-11.05c0-3.9,2.6-10.83,7.8-20.8c42.02-74.96,73.87-129.77,95.54-164.44
			c51.56-82.76,87.96-127.61,109.19-134.54c0.86-0.43,1.73-0.65,2.6-0.65c5.63,0,9.53,4.55,11.7,13.65
			c-1.3,9.1-23.84,42.03-67.6,98.79c-45.5,57.63-71.28,95.33-77.35,113.09c16.03-11.7,43.97-31.41,83.85-59.15
			c42.9-29.9,71.27-44.85,85.15-44.85c13.86,0,20.8,5.42,20.8,16.25c0,1.74-0.11,2.92-0.33,3.58c-0.22,0.65-15.27,21.12-45.17,61.42
			c-29.9,40.3-44.85,69.98-44.85,89.04c0,9.97,3.68,14.95,11.05,14.95c23.4-0.86,58.5-29.02,105.29-84.5
			c3.9-3.9,6.82-5.85,8.77-5.85s2.92,1.3,2.92,3.9c0,8.67-21.45,32.07-64.35,70.2C2122.01,2223.76,2103.81,2235.46,2094.28,2235.46z
			"/>
		<path class="st13" d="M2217.77,2246.51c-4.77,0-9.1-0.65-13-1.95c-27.73-7.8-41.6-23.4-41.6-46.8c0-30.32,19.07-65.42,57.2-105.29
			c38.12-39.86,72.36-59.8,102.69-59.8c9.96,0,18.09,2.71,24.37,8.12c6.28,5.42,9.42,12.02,9.42,19.82
			c0,24.27-18.31,47.45-54.92,69.55c-36.62,22.1-66.41,33.15-89.37,33.15c-3.47,0-6.5-0.43-9.1-1.3c-6.5,11.7-9.75,24.05-9.75,37.05
			c0,22.54,10.72,33.8,32.17,33.8c21.45,0,49.29-14.51,83.52-43.55c26.43-21.23,48.96-43.76,67.6-67.6c3.9-5.2,7.25-7.8,10.07-7.8
			c2.81,0,4.22,1.3,4.22,3.9s-1.74,6.29-5.2,11.05c-23.4,30.77-51.57,58.07-84.5,81.89
			C2268.68,2234.6,2240.73,2246.51,2217.77,2246.51z M2340.61,2059.32c0-5.2-5.52-7.8-16.57-7.8c-11.05,0-26.76,8.45-47.12,25.35
			c-27.3,22.54-48.53,46.15-63.7,70.85c2.6,0.87,5.41,1.3,8.45,1.3c16.46,0,38.45-8.77,65.97-26.32
			c27.51-17.55,44.74-36.72,51.67-57.52C2340.17,2063.01,2340.61,2061.06,2340.61,2059.32z"/>
		<path class="st13" d="M2891.77,2220.51c0,29.02,14.51,43.55,43.55,43.55c39,0,86.01-28.16,141.04-84.5
			c49.82-50.26,87.85-101.5,114.07-153.72c26.21-52.21,39.32-91.97,39.32-119.27c0-4.33-0.44-8.66-1.3-13
			c-9.54,0-19.29-4.98-29.25-14.95v0.65c-6.5-5.2-9.75-10.5-9.75-15.92c0-5.41,2.16-9.85,6.5-13.32c4.33-3.46,9.96-5.2,16.9-5.2
			c6.93,0,11.8,2.71,14.62,8.12c2.81,5.42,6.39,10.3,10.72,14.62c4.33,4.34,6.28,7.37,5.85,9.1c2.6,3.9,6.6,5.85,12.02,5.85
			c5.41,0,11.59-2.6,18.52-7.8c6.93-5.2,12.45-7.8,16.57-7.8c4.11,0,6.17,1.3,6.17,3.9c0,4.77-4.12,9.32-12.35,13.65
			c-4.34,3.47-9.54,5.42-15.6,5.85h-20.8c5.2,17.77,7.8,30.55,7.8,38.35c0,34.67-16.57,79.73-49.72,135.19
			c-33.15,55.47-75.72,104.64-127.72,147.54c-52.43,44.2-99.99,66.3-142.67,66.3c-42.68,0-64.02-20.8-64.02-62.4
			c0-32.92,13.86-79.95,41.6-141.04l46.8-102.04l-63.7,49.4c-19.94,16.47-40.2,34.56-60.77,54.27
			c-20.59,19.72-56.45,60.35-107.57,121.87l-75.4,92.29c-12.14,13.86-22.97,20.8-32.5,20.8c-7.37,0-11.05-4.77-11.05-14.3
			c0-9.54,3.9-21.89,11.7-37.05l125.44-180.69c75.82-111.36,113.74-181.99,113.74-211.89c0-16.46-15.17-24.7-45.5-24.7
			c-36.83,0-88.18,22.54-154.04,67.6c-35.53,24.27-66.73,54.71-93.59,91.32c-26.87,36.62-40.3,66.95-40.3,91s16.03,36.07,48.1,36.07
			c29.9,0,60.66-13.86,92.29-41.6c11.26-9.53,17.76-14.3,19.5-14.3c1.73,0,2.38,1.52,1.95,4.55c-4.77,16.47-22.42,32.17-52.97,47.12
			s-57.52,22.42-80.92,22.42c-6.07,0-10.19-0.21-12.35-0.65h-0.65c-34.67-7.36-52-24.47-52-51.35c0-26.86,14.95-59.15,44.85-96.84
			c52.86-66.72,120.89-116.34,204.09-148.84c42.9-16.46,78.21-24.7,105.94-24.7c34.22,0,51.35,11.27,51.35,33.8
			c0,46.8-58.93,148.42-176.79,304.83c-39.43,52.43-59.37,78.65-59.8,78.65c1.3,0,23.94-24.48,67.92-73.45
			c43.97-48.96,85.68-90.77,125.12-125.44c15.16-13.43,41.37-38.12,78.65-74.1c19.5-18.2,40.51-34.66,63.05-49.4
			c5.63-3.46,13.75-5.2,24.37-5.2c10.61,0,17.87,3.04,21.77,9.1c-39.87,49.4-74.64,104.76-104.32,166.07
			C2906.61,2150.21,2891.77,2194.09,2891.77,2220.51z"/>
		<path class="st13" d="M3251.2,2246.51c-4.77,0-9.1-0.65-13-1.95c-27.73-7.8-41.6-23.4-41.6-46.8c0-30.32,19.07-65.42,57.2-105.29
			c38.12-39.86,72.36-59.8,102.69-59.8c9.96,0,18.09,2.71,24.37,8.12c6.28,5.42,9.42,12.02,9.42,19.82
			c0,24.27-18.31,47.45-54.92,69.55c-36.62,22.1-66.41,33.15-89.37,33.15c-3.47,0-6.5-0.43-9.1-1.3c-6.5,11.7-9.75,24.05-9.75,37.05
			c0,22.54,10.72,33.8,32.17,33.8c21.45,0,49.29-14.51,83.52-43.55c26.43-21.23,48.96-43.76,67.6-67.6c3.9-5.2,7.25-7.8,10.07-7.8
			c2.81,0,4.22,1.3,4.22,3.9s-1.74,6.29-5.2,11.05c-23.4,30.77-51.57,58.07-84.5,81.89
			C3302.11,2234.6,3274.16,2246.51,3251.2,2246.51z M3374.04,2059.32c0-5.2-5.52-7.8-16.57-7.8c-11.05,0-26.76,8.45-47.12,25.35
			c-27.3,22.54-48.53,46.15-63.7,70.85c2.6,0.87,5.41,1.3,8.45,1.3c16.46,0,38.45-8.77,65.97-26.32
			c27.51-17.55,44.74-36.72,51.67-57.52C3373.61,2063.01,3374.04,2061.06,3374.04,2059.32z"/>
		<path class="st13" d="M3601.52,2043.72l9.1-1.95c4.76,0,9.31,1.95,13.65,5.85c4.33,3.9,6.5,6.94,6.5,9.1
			c0,2.17-13.44,23.07-40.3,62.72c-26.87,39.65-40.3,67.27-40.3,82.87c0,1.3,0.21,2.6,0.65,3.9c2.16,9.97,6.93,14.95,14.3,14.95
			c22.53,0,63.7-37.26,123.49-111.79c1.3-1.73,2.81-2.6,4.55-2.6c1.73,0,2.6,1.62,2.6,4.88s-1.95,7.47-5.85,12.67
			c-55.47,74.1-97.72,111.14-126.74,111.14c-3.9,0-7.59-0.65-11.05-1.95c-19.07-7.36-28.6-21.66-28.6-42.9
			c0-7.36,0.86-14.73,2.6-22.1l-40.3,39c-25.57,22.54-44.1,33.8-55.57,33.8c-11.49,0-22.42-3.68-32.82-11.05
			c-11.7-8.66-17.55-20.15-17.55-34.45c0-31.62,22.1-69.43,66.3-113.42c44.2-43.97,84.71-65.97,121.54-65.97
			c14.3,0,23.83,4.99,28.6,14.95c1.3,3.47,2.38,6.4,3.25,8.77C3600.44,2042.53,3601.09,2043.72,3601.52,2043.72z M3407.18,2203.61
			c0,15.6,5.41,23.4,16.25,23.4c25.13,0,59.36-27.51,102.69-82.54l68.9-94.89c-3.47-6.06-9.1-9.1-16.9-9.1
			c-26.44,0-61.53,20.47-105.29,61.42C3429.06,2142.84,3407.18,2176.75,3407.18,2203.61z"/>
		<path class="st13" d="M3829.65,1982.63c13,0,24.05,4.34,33.15,13c9.1,8.67,13.65,20.8,13.65,36.4
			c0,34.23-28.38,77.13-85.15,128.69c-48.1,43.33-86.88,69.77-116.34,79.3c-4.77,0-11.05-2.6-18.85-7.8
			c-7.8-5.2-11.7-9.96-11.7-14.3c0-9.53,10.4-41.81,31.2-96.84c20.8-55.02,35.1-85.8,42.9-92.3c1.73-1.73,4.55-2.6,8.45-2.6
			c3.9,0,8.01,2.06,12.35,6.17c4.33,4.12,6.71,9,7.15,14.62c0,0.44-10.72,25.57-32.17,75.4c-21.45,49.83-31.52,79.52-30.22,89.04
			c18.63-5.63,51.89-28.38,99.77-68.25c47.88-39.86,71.82-75.61,71.82-107.24c0-19.06-9.54-32.92-28.6-41.6
			c-3.04-1.3-4.55-3.25-4.55-5.85C3822.5,1984.58,3824.88,1982.63,3829.65,1982.63z"/>
		<path class="st13" d="M3881.64,2246.51c-4.77,0-9.1-0.65-13-1.95c-27.73-7.8-41.6-23.4-41.6-46.8c0-30.32,19.07-65.42,57.2-105.29
			c38.12-39.86,72.36-59.8,102.7-59.8c9.96,0,18.09,2.71,24.37,8.12c6.28,5.42,9.42,12.02,9.42,19.82
			c0,24.27-18.31,47.45-54.92,69.55c-36.62,22.1-66.41,33.15-89.37,33.15c-3.47,0-6.5-0.43-9.1-1.3c-6.5,11.7-9.75,24.05-9.75,37.05
			c0,22.54,10.72,33.8,32.17,33.8s49.29-14.51,83.52-43.55c26.43-21.23,48.96-43.76,67.6-67.6c3.9-5.2,7.25-7.8,10.08-7.8
			c2.81,0,4.22,1.3,4.22,3.9s-1.74,6.29-5.2,11.05c-23.4,30.77-51.57,58.07-84.5,81.89
			C3932.55,2234.6,3904.61,2246.51,3881.64,2246.51z M4004.49,2059.32c0-5.2-5.53-7.8-16.57-7.8c-11.05,0-26.76,8.45-47.12,25.35
			c-27.3,22.54-48.53,46.15-63.7,70.85c2.6,0.87,5.41,1.3,8.45,1.3c16.46,0,38.45-8.77,65.97-26.32
			c27.51-17.55,44.74-36.72,51.67-57.52C4004.05,2063.01,4004.49,2061.06,4004.49,2059.32z"/>
		<path class="st13" d="M4148.12,2241.31c-32.5,0-48.75-17.98-48.75-53.95c0-18.2,4.76-38.12,14.3-59.8
			c9.53-21.66,19.93-39.86,31.2-54.6c-2.17,0.44-4.99,0.65-8.45,0.65c-10.4,0-19.07-7.36-26-22.1l-48.1,62.4
			c-26.87,33.37-42.47,50.05-46.8,50.05c-2.16,0-3.25-0.86-3.25-2.6c0-4.33,3.68-10.61,11.05-18.85
			c37.7-43.76,64.35-80.81,79.95-111.14c9.96-37.7,22.53-56.55,37.7-56.55c9.96,0,14.95,4.34,14.95,13
			c0,8.67-5.42,19.72-16.25,33.15l-15.6,20.8c0,9.1,6.71,13.65,20.15,13.65c7.8,0,16.46-2.81,26-8.45l16.9-10.4
			c0.86-0.43,3.03-0.65,6.5-0.65c3.46,0,7.15,2.17,11.05,6.5c3.9,4.34,5.2,8.24,3.9,11.7l-44.85,56.55
			c-27.74,35.53-41.6,63.59-41.6,84.17c0,20.59,9.53,30.87,28.6,30.87c19.93,0,44.41-10.61,73.45-31.85
			c17.33-12.56,33.15-26.65,47.45-42.25c13.43-15.6,20.8-23.4,22.1-23.4c3.03,0,4.55,1.62,4.55,4.88s-1.95,7.05-5.85,11.37
			l-20.8,23.4c-11.7,12.14-24.7,23.84-39,35.1C4198.38,2228.53,4170.22,2241.31,4148.12,2241.31z"/>
	</g>
</g>
<g id="Layer_5">
</g>
</svg>
